<svg xmlns="http://www.w3.org/2000/svg" version="1.1" xmlns:xlink="http://www.w3.org/1999/xlink" xmlns:svgjs="http://svgjs.com/svgjs" width="512" height="512" x="0" y="0" viewBox="0 0 512.045 512.045" style="enable-background:new 0 0 512 512" xml:space="preserve" class=""><g><g xmlns="http://www.w3.org/2000/svg"><g><path d="m293.66 324.684 174.688-190.111c10.4-11.318 29.056-7.873 34.727 6.414 2.579 6.498 1.73 13.856-2.262 19.596l-180.288 259.198c-7.851 11.288-24.017 12.688-33.692 2.918l-109.188-110.252c-7.925-8.002-8.077-20.846-.344-29.033 6.464-6.845 16.709-8.517 25.015-4.084l86.515 46.176c1.609.859 3.595.52 4.829-.822z" fill="#e1e1e1" data-original="#c9f6b0" class=""></path><g><path d="m503.074 140.987c-5.605-14.12-23.887-17.64-34.353-6.794 1.806 1.877 3.303 4.149 4.353 6.794 2.579 6.498 1.73 13.856-2.262 19.595l-180.287 259.199c-.912 1.312-1.941 2.484-3.055 3.527 9.734 9.089 25.373 7.518 33.055-3.527l180.288-259.199c3.991-5.739 4.841-13.097 2.261-19.595z" fill="#7c7c7c" data-original="#9be69d" class=""></path></g><path d="m129.606 279.684 174.687-190.111c10.4-11.318 29.056-7.873 34.727 6.414 2.579 6.498 1.73 13.856-2.262 19.595l-180.288 259.199c-7.851 11.288-24.017 12.688-33.692 2.918l-109.188-110.252c-7.925-8.002-8.077-20.846-.344-29.033 6.464-6.845 16.709-8.517 25.015-4.084l86.515 46.176c1.61.859 3.596.52 4.83-.822z" fill="#e1e1e1" data-original="#c9f6b0" class=""></path><g><path d="m339.02 95.987c-5.605-14.12-23.887-17.64-34.354-6.794 1.806 1.877 3.303 4.149 4.354 6.794 2.58 6.498 1.73 13.856-2.262 19.595l-180.288 259.199c-.912 1.312-1.941 2.484-3.055 3.527 9.734 9.089 25.373 7.518 33.055-3.527l180.288-259.199c3.992-5.739 4.842-13.097 2.262-19.595z" fill="#7c7c7c" data-original="#9be69d" class=""></path></g></g><path d="m510.046 138.215c-3.622-9.121-11.548-15.631-21.202-17.413-9.655-1.785-19.382 1.468-26.021 8.696l-172.852 188.11-61.695-32.926 114.64-164.816c5.442-7.824 6.592-17.785 3.075-26.645-3.621-9.123-11.546-15.634-21.198-17.417-9.651-1.783-19.38 1.468-26.021 8.695l-44.14 48.037c-2.803 3.05-2.603 7.794.448 10.597 3.049 2.802 7.794 2.603 10.597-.448l44.14-48.037c3.174-3.453 7.637-4.947 12.252-4.094 4.612.852 8.251 3.841 9.981 8.2 1.655 4.172 1.114 8.862-1.448 12.546l-180.289 259.198c-2.467 3.546-6.35 5.794-10.652 6.167-4.315.374-8.515-1.174-11.554-4.243l-109.188-110.252c-5.107-5.157-5.204-13.33-.221-18.607 4.132-4.374 10.721-5.451 16.031-2.617l86.514 46.175c4.627 2.471 10.335 1.499 13.885-2.363l106.775-116.203c2.803-3.05 2.603-7.795-.448-10.597-3.051-2.803-7.796-2.603-10.597.448l-104.94 114.207-84.125-44.9c-11.258-6.008-25.237-3.725-33.998 5.551-10.57 11.19-10.365 28.524.467 39.461l109.188 110.252c5.577 5.632 13.093 8.743 20.938 8.743 9.624 0 18.748-4.73 24.241-12.656l57.024-81.983 65.633 35.028c4.625 2.486 10.34 1.52 13.894-2.351l174.689-190.111c3.174-3.453 7.637-4.945 12.254-4.094 4.614.852 8.253 3.84 9.988 8.208.621 1.557.936 3.209.936 4.911 0 2.737-.828 5.377-2.388 7.627l-180.29 259.201c-2.467 3.547-6.351 5.795-10.655 6.167-4.292.375-8.51-1.173-11.549-4.243l-71.615-72.315c-2.915-2.943-7.664-2.965-10.606-.052-2.943 2.915-2.967 7.664-.052 10.606l71.614 72.314c6.188 6.259 14.801 9.387 23.502 8.634 8.757-.758 16.658-5.332 21.676-12.547l180.296-259.21c3.314-4.782 5.066-10.377 5.066-16.183-.001-3.612-.674-7.135-2-10.456z" fill="#606060" data-original="#000000" class=""></path></g></g></svg>