<svg xmlns="http://www.w3.org/2000/svg" version="1.1" xmlns:xlink="http://www.w3.org/1999/xlink" xmlns:svgjs="http://svgjs.com/svgjs" width="512" height="512" x="0" y="0" viewBox="0 0 500 500" style="enable-background:new 0 0 512 512" xml:space="preserve" class=""><g><path xmlns="http://www.w3.org/2000/svg" d="m280.091 80.916h-234.091v419.084h326.385v-335.867z" fill="#cc4b4c" data-original="#0795fe" class=""></path><path xmlns="http://www.w3.org/2000/svg" d="m349.705 12h-234.09v419.084h326.385v-335.868z" fill="#ffffff" data-original="#ffffff" class=""></path><path xmlns="http://www.w3.org/2000/svg" d="m288.151 12h-172.536v419.084h326.385v-274.355" fill="#ffffff" data-original="#ffffff" class=""></path><path xmlns="http://www.w3.org/2000/svg" d="m442 443.084h-326.386c-6.628 0-12-5.373-12-12v-419.084c0-6.627 5.372-12 12-12h172.537c6.627 0 12 5.373 12 12s-5.373 12-12 12h-160.537v395.084h302.386v-262.355c0-6.627 5.372-12 12-12 6.627 0 12 5.373 12 12v274.355c0 6.627-5.373 12-12 12z" fill="#bb0806" data-original="#3e4d6c" class=""></path><path xmlns="http://www.w3.org/2000/svg" d="m349.705 12v83.216h92.295z" fill="#cc4b4c" data-original="#0795fe" class=""></path><g xmlns="http://www.w3.org/2000/svg" fill="#3e4d6c"><path d="m374.206 326.629h-190.798c-6.627 0-12-5.373-12-12s5.373-12 12-12h190.798c6.627 0 12 5.373 12 12s-5.373 12-12 12z" fill="#bb0806" data-original="#3e4d6c" class=""></path><path d="m222.228 174.589c-6.249-5.558-15.664-8.376-27.985-8.376-8.286 0-16.188.611-23.485 1.816l-2.424.4v96.133h17.792v-36.297c2.268.248 4.614.293 6.747.293 12.945 0 23.771-3.907 30.45-10.964 5.3-5.398 7.988-12.681 7.988-21.646.001-8.754-3.239-16.353-9.083-21.359zm-8.697 21.915c0 14.585-12.774 16.762-20.388 16.762-2.804 0-5.123-.139-7.016-.424v-31.017c1.934-.26 4.759-.463 8.396-.463 8.671 0 19.008 2.627 19.008 15.142z" fill="#bb0806" data-original="#3e4d6c" class=""></path><path d="m309.644 178.447c-8.905-8.232-21.855-12.233-39.592-12.233-8.558 0-17.278.654-25.919 1.943l-2.469.368v95.45l2.57.292c6.537.743 13.974 1.118 22.105 1.118 18.898 0 33.803-4.868 43.091-14.063 9.307-9.07 14.227-22.132 14.227-37.772 0-14.861-4.722-26.678-14.013-35.103zm-4.33 35.513c0 23.3-13.009 36.131-36.63 36.131-2.688 0-6.279-.039-9.226-.319v-67.66c2.582-.399 6.249-.75 11.156-.75 11.624 0 20.512 2.984 26.417 8.869 5.565 5.547 8.352 13.524 8.283 23.729z" fill="#bb0806" data-original="#3e4d6c" class=""></path><path d="m389.28 182.595v-15.704h-55.81v97.672h17.794v-41.6h35.133v-15.56h-35.133v-24.808z" fill="#bb0806" data-original="#3e4d6c" class=""></path></g></g></svg>