<svg xmlns="http://www.w3.org/2000/svg" version="1.1" xmlns:xlink="http://www.w3.org/1999/xlink" xmlns:svgjs="http://svgjs.com/svgjs" width="512" height="512" x="0" y="0" viewBox="0 0 480 480" style="enable-background:new 0 0 512 512" xml:space="preserve" class=""><g><path xmlns="http://www.w3.org/2000/svg" d="m403.52 349.8v-95.32c0-17.673-14.327-32-32-32h-331.52c-17.673 0-32 14.327-32 32v175.52c0 17.673 14.327 32 32 32h331.52c17.673 0 32-14.327 32-32v-25.31l14.255 1.276c6.226.558 10.658-5.921 7.881-11.522z" fill="#b9dcff" data-original="#b9dcff"></path><path xmlns="http://www.w3.org/2000/svg" d="m401.2 242.48h-321.2c-17.67 0-32 14.33-32 32v175.52c0 4.24.82 8.29 2.32 12h-10.32c-17.67 0-32-14.33-32-32v-175.52c0-17.67 14.33-32 32-32h331.52c13.43 0 24.93 8.28 29.68 20z" fill="#d1e7ff" data-original="#d1e7ff" class=""></path><path xmlns="http://www.w3.org/2000/svg" d="m165.15 392.52c1.69 9.81-5.81 18.79-15.76 18.79h-74.55c-9.75 0-17.3-8.66-15.84-18.3 2.1-13.8 9.19-31.9 32.04-41.65.25-.25 6.943 6.91 21.16 6.91 8.55 0 15.6-2.61 21.15-6.92.848.848 26.131 8.366 31.8 41.17z" fill="#d1e7ff" data-original="#d1e7ff" class=""></path><path xmlns="http://www.w3.org/2000/svg" d="m112.2 273.18c48.857 0 48.78 85.09 0 85.09-48.792 0-48.821-85.09 0-85.09z" fill="#e8f3ff" data-original="#e8f3ff" class=""></path><path xmlns="http://www.w3.org/2000/svg" d="m472 50v85.52c0 17.673-14.327 32-32 32h-331.52c-17.673 0-32-14.327-32-32v-15.32l-22.138-44.642c-2.777-5.601 1.659-12.084 7.885-11.526l14.253 1.278v-15.31c0-17.673 14.327-32 32-32h331.52c17.673 0 32 14.327 32 32z" fill="#d1e7ff" data-original="#d1e7ff" class=""></path><path xmlns="http://www.w3.org/2000/svg" d="m469.68 38h-321.2c-17.67 0-32 14.33-32 32v85.52c0 4.24.82 8.29 2.32 12h-10.32c-17.67 0-32-14.33-32-32v-15.32l-22.138-44.642c-2.77-5.61 1.655-12.076 7.885-11.526l14.253 1.278v-15.31c0-17.67 14.33-32 32-32h331.52c13.43 0 24.93 8.28 29.68 20z" fill="#e8f3ff" data-original="#e8f3ff" class=""></path><g xmlns="http://www.w3.org/2000/svg" fill="#2e58ff"><path d="m440 10h-331.516c-6.261 0-12.505 1.487-18.058 4.301-3.941 1.996-5.518 6.811-3.521 10.752 1.996 3.94 6.81 5.518 10.752 3.52 3.369-1.707 7.012-2.572 10.826-2.572h331.517c13.234 0 24 10.767 24 24v85.517c0 13.233-10.766 24-24 24h-331.516c-13.234 0-24-10.767-24-24v-15.313c0-2.648 1.02.181-22.971-48.202l14.257 1.277c4.386.407 8.288-2.853 8.682-7.254.394-4.4-2.854-8.287-7.254-8.682l-28.484-2.553c-6.192-.558-10.666 5.905-7.881 11.521l27.651 55.766v13.438c0 22.056 17.944 40 40 40h331.516c22.056 0 40-17.944 40-40v-85.516c0-22.056-17.944-40-40-40z" fill="#00365a" data-original="#2e58ff" class=""></path><path d="m415.193 71.483c4.418 0 8-3.582 8-8s-3.582-8-8-8h-114.838c-4.418 0-8 3.582-8 8s3.582 8 8 8z" fill="#00365a" data-original="#2e58ff" class=""></path><path d="m254.5 71.483c4.418 0 8-3.582 8-8s-3.582-8-8-8h-68.468c-4.418 0-8 3.582-8 8s3.582 8 8 8z" fill="#00365a" data-original="#2e58ff" class=""></path><path d="m125.291 120.032c0 4.418 3.582 8 8 8h242.419c4.418 0 8-3.582 8-8s-3.582-8-8-8h-242.419c-4.419 0-8 3.582-8 8z" fill="#00365a" data-original="#2e58ff" class=""></path><path d="m411.516 347.922v-93.438c0-22.056-17.944-40-40-40h-331.516c-22.056 0-40 17.944-40 40v175.516c0 22.056 17.944 40 40 40h331.516c12.056 0 23.351-5.358 30.986-14.702 2.795-3.421 2.289-8.461-1.132-11.257-3.421-2.797-8.461-2.288-11.257 1.132-4.584 5.609-11.362 8.827-18.597 8.827h-331.516c-13.234 0-24-10.767-24-24v-175.517c0-13.233 10.766-24 24-24h331.516c13.234 0 24 10.767 24 24v95.313c0 2.648-1.02-.181 22.971 48.202l-14.257-1.277c-4.39-.41-8.288 2.853-8.682 7.254-.394 4.4 2.854 8.287 7.254 8.682l28.484 2.553c6.184.567 10.668-5.902 7.881-11.521z" fill="#00365a" data-original="#2e58ff" class=""></path><path d="m201.258 413.517h145.451c4.418 0 8-3.582 8-8s-3.582-8-8-8h-145.451c-4.418 0-8 3.582-8 8s3.582 8 8 8z" fill="#00365a" data-original="#2e58ff" class=""></path><path d="m304.742 292.419c0-4.418-3.582-8-8-8h-105.484c-4.418 0-8 3.582-8 8s3.582 8 8 8h105.483c4.419 0 8.001-3.582 8.001-8z" fill="#00365a" data-original="#2e58ff" class=""></path><path d="m201.258 340.968c-4.418 0-8 3.582-8 8s3.582 8 8 8h47.871c4.418 0 8-3.582 8-8s-3.582-8-8-8z" fill="#00365a" data-original="#2e58ff" class=""></path><path d="m346.709 340.968h-58.097c-4.418 0-8 3.582-8 8s3.582 8 8 8h58.097c4.418 0 8-3.582 8-8s-3.581-8-8-8z" fill="#00365a" data-original="#2e58ff" class=""></path><path d="m51.093 391.808c-2.2 14.484 9.105 27.499 23.746 27.499h74.549c14.917 0 26.181-13.457 23.643-28.147-1.142-6.604-3.091-12.781-5.795-18.357-1.927-3.976-6.713-5.633-10.688-3.708-3.976 1.928-5.636 6.713-3.708 10.688 2.051 4.229 3.54 8.973 4.426 14.102.853 4.936-2.887 9.423-7.876 9.423h-74.552c-4.776 0-8.669-4.215-7.927-9.097 2.353-15.489 10.251-26.79 23.464-33.677 18.316 10.868 48.539 7.703 61.235-20.076 1.837-4.018.068-8.765-3.95-10.602-4.02-1.835-8.765-.066-10.602 3.951-3.434 7.513-10.534 16.468-24.86 16.468-37.998 0-38.393-69.097 0-69.097 17.424 0 24.144 13.169 26.599 21.019 1.319 4.218 5.808 6.567 10.023 5.248 4.217-1.319 6.566-5.807 5.248-10.023-6.314-20.189-21.966-32.243-41.87-32.243-42.644 0-56.326 54.013-34.193 84.038-14.841 9.454-24.086 23.979-26.912 42.591z" fill="#00365a" data-original="#2e58ff" class=""></path></g></g></svg>