<svg xmlns="http://www.w3.org/2000/svg" version="1.1" xmlns:xlink="http://www.w3.org/1999/xlink" xmlns:svgjs="http://svgjs.com/svgjs" width="512" height="512" x="0" y="0" viewBox="0 0 480 480" style="enable-background:new 0 0 512 512" xml:space="preserve" class=""><g><path xmlns="http://www.w3.org/2000/svg" d="m448 28h-416c-13.25 0-24 10.75-24 24v376c0 13.25 10.75 24 24 24h416c13.25 0 24-10.75 24-24v-376c0-13.25-10.75-24-24-24z" fill="#a2d0ff" data-original="#a2d0ff" class=""></path><path xmlns="http://www.w3.org/2000/svg" d="m32 28c-13.25 0-24 10.75-24 24v376c0 13.25 10.75 24 24 24h54v-424z" fill="#d1e7ff" data-original="#d1e7ff" class=""></path><path xmlns="http://www.w3.org/2000/svg" d="m428 255v131c0 8.84-7.16 16-16 16h-262c-8.906 0-16-7.236-16-16v-131c0-8.84 7.16-16 16-16h262c8.84 0 16 7.16 16 16z" fill="#d1e7ff" data-original="#d1e7ff" class=""></path><g xmlns="http://www.w3.org/2000/svg" fill="#b9dcff"><path d="m428 328.23v57.77c0 8.84-7.16 16-16 16h-262c-2.75 0-5.35-.7-7.61-1.92 10.2-25.08 25.83-54.15 45.98-54.69 13.62-.37 17.52 12.61 30.65 12.65 31.69.09 43.99-75.48 72.42-75.62 21.69-.1 29.75 43.84 54.53 42.9 17-.64 22.07-21.67 40.91-23.16 16.62-1.31 31.38 13.56 41.12 26.07z" fill="#b9dcff" data-original="#b9dcff" class=""></path><path d="m428 96v74c0 8.84-7.16 16-16 16h-57c-8.84 0-16-7.16-16-16v-74c0-8.84 7.16-16 16-16h57c8.84 0 16 7.16 16 16z" fill="#b9dcff" data-original="#b9dcff" class=""></path><path d="m281 96v74c0 8.84-7.16 16-16 16h-115c-8.84 0-16-7.16-16-16v-74c0-8.84 7.16-16 16-16h115c8.84 0 16 7.16 16 16z" fill="#b9dcff" data-original="#b9dcff" class=""></path></g><path xmlns="http://www.w3.org/2000/svg" d="m413.078 80.036c12.667.842 11.701 19.964-.994 19.964-29.317 0-53.084 23.766-53.084 53.084v17c0 12.695-19.122 13.661-19.964.994-.042-.632-.036-75.185-.036-75.078 0-8.837 7.163-16 16-16 0 0 57.721.012 58.078.036z" fill="#d1e7ff" data-original="#d1e7ff" class=""></path><path xmlns="http://www.w3.org/2000/svg" d="m266.078 80.036c12.667.842 11.701 19.964-.994 19.964h-41c-38.706 0-70.084 31.378-70.084 70.084 0 12.695-19.122 13.661-19.964.994-.042-.632-.036-75.185-.036-75.078 0-8.837 7.163-16 16-16 0 0 115.721.012 116.078.036z" fill="#d1e7ff" data-original="#d1e7ff" class=""></path><g xmlns="http://www.w3.org/2000/svg" fill="#2e58ff"><path d="m448 20h-416c-17.645 0-32 14.355-32 32v376c0 10.801 5.392 20.798 14.422 26.743 3.691 2.428 8.65 1.406 11.081-2.284 2.429-3.69 1.406-8.651-2.284-11.081-4.521-2.976-7.219-7.977-7.219-13.378v-376c0-8.822 7.178-16 16-16h416c8.822 0 16 7.178 16 16v376c0 8.822-7.178 16-16 16h-354v-357c0-4.418-3.582-8-8-8s-8 3.582-8 8v365c0 4.418 3.582 8 8 8h362c17.645 0 32-14.355 32-32v-376c0-17.645-14.355-32-32-32z" fill="#00365a" data-original="#2e58ff" class=""></path><path d="m126 347.581c0 4.418 3.582 8 8 8s8-3.582 8-8v-92.581c0-4.411 3.589-8 8-8h262c4.411 0 8 3.589 8 8v131c0 4.411-3.589 8-8 8h-258.298c15.636-34.672 28.4-40.441 34.884-40.616 9.358-.236 14.52 12.613 30.408 12.657 21.696 0 34.375-23.832 45.339-43.42 8.437-15.072 17.999-32.156 27.146-32.199 6.999 0 14.169 10.919 18.656 17.16 8.891 12.366 18.927 26.359 36.136 25.733 21.246-.806 26.75-23.202 42.626-23.236 4.418-.007 7.995-3.594 7.988-8.012-.007-4.414-3.587-7.988-8-7.988-23.307 0-30.819 22.776-43.222 23.248-18.664.731-27.304-42.905-54.261-42.905-18.476.088-29.942 20.573-41.031 40.384-9.245 16.518-19.723 35.235-31.302 35.235-8.963 0-14.329-13.054-30.915-12.651-19.656.53-37.037 20.023-53.135 59.59-1.603 3.864.024 8.226 3.566 10.136 3.458 1.862 7.39 2.884 11.415 2.884h262c13.233 0 24-10.767 24-24v-131c0-13.233-10.767-24-24-24h-262c-13.233 0-24 10.767-24 24z" fill="#00365a" data-original="#2e58ff" class=""></path><path d="m150 194h115c13.233 0 24-10.767 24-24v-74c0-13.233-10.767-24-24-24h-115c-13.233 0-24 10.767-24 24v74c0 13.233 10.767 24 24 24zm-8-98c0-4.411 3.589-8 8-8h115c4.411 0 8 3.589 8 8v74c0 4.411-3.589 8-8 8h-115c-4.411 0-8-3.589-8-8z" fill="#00365a" data-original="#2e58ff" class=""></path><path d="m243.258 141h3.742c4.418 0 8-3.582 8-8s-3.582-8-8-8h-3.742c-4.418 0-8 3.582-8 8s3.582 8 8 8z" fill="#00365a" data-original="#2e58ff" class=""></path><path d="m169 141h42c4.418 0 8-3.582 8-8s-3.582-8-8-8h-42c-4.418 0-8 3.582-8 8s3.582 8 8 8z" fill="#00365a" data-original="#2e58ff" class=""></path><path d="m412 194c13.233 0 24-10.767 24-24v-74c0-13.233-10.767-24-24-24h-57c-13.233 0-24 10.767-24 24v74c0 13.233 10.767 24 24 24zm-65-24v-74c0-4.411 3.589-8 8-8h57c4.411 0 8 3.589 8 8v74c0 4.411-3.589 8-8 8h-57c-4.411 0-8-3.589-8-8z" fill="#00365a" data-original="#2e58ff" class=""></path><path d="m54 79h-14c-4.418 0-8 3.582-8 8s3.582 8 8 8h14c4.418 0 8-3.582 8-8s-3.582-8-8-8z" fill="#00365a" data-original="#2e58ff" class=""></path><path d="m54 129h-14c-4.418 0-8 3.582-8 8s3.582 8 8 8h14c4.418 0 8-3.582 8-8s-3.582-8-8-8z" fill="#00365a" data-original="#2e58ff" class=""></path><path d="m54 179h-14c-4.418 0-8 3.582-8 8s3.582 8 8 8h14c4.418 0 8-3.582 8-8s-3.582-8-8-8z" fill="#00365a" data-original="#2e58ff" class=""></path><circle cx="47" cy="402" r="15" fill="#00365a" data-original="#2e58ff" class=""></circle></g></g></svg>