<svg xmlns="http://www.w3.org/2000/svg" version="1.1" xmlns:xlink="http://www.w3.org/1999/xlink" xmlns:svgjs="http://svgjs.com/svgjs" width="512" height="512" x="0" y="0" viewBox="0 0 480 480" style="enable-background:new 0 0 512 512" xml:space="preserve" class=""><g><g xmlns="http://www.w3.org/2000/svg" fill="#d1e7ff"><path d="m193.89 427.88-29.46-10.13c-14.82-5.1-24.89-19.06-25.18-34.55 24.5-10.27 41.73-34.44 41.75-62.65v-44.58c0-37.55-30.43-67.99-67.97-68.02-37.57-.02-68.05 30.41-68.07 67.98v44.49c.02 28.58 17.65 53.1 42.65 63.16 0 14.036-9.448 28.804-25.04 34.17l-29.46 10.13c-14.181 4.881-25.11 18.113-25.11 36.12 0 4.418 3.582 8 8 8h203v-8.93c0-15.89-10.09-30.02-25.11-35.19z" fill="#d1e7ff" data-original="#d1e7ff" class=""></path><path d="m446.89 427.88-29.46-10.13c-15.492-5.332-25.04-20.043-25.04-34.17 25-10.06 42.63-34.58 42.65-63.16v-44.49c-.02-37.57-30.5-68-68.07-67.98-37.54.03-67.97 30.47-67.97 68.02v44.58c.02 28.21 17.25 52.38 41.75 62.65-.29 15.49-10.36 29.45-25.18 34.55l-29.46 10.13c-15.02 5.17-25.11 19.3-25.11 35.19v8.93h203c4.418 0 8-3.582 8-8 0-17.914-10.844-31.21-25.11-36.12z" fill="#d1e7ff" data-original="#d1e7ff" class=""></path><path d="m187 32v91c0 13.255-10.745 24-24 24h-91.725c-2.177 0-3.947 1.742-4.006 3.918-.165 6.117.957 12.084 3.208 17.608 1.28 3.142-1.627 6.321-4.88 5.356-10.819-3.208-19.298-11.419-22.744-23.889-.485-1.755-2.047-2.994-3.868-2.994h-6.985c-13.255 0-24-10.745-24-24v-90.999c0-13.255 10.745-24 24-24h131c13.255 0 24 10.745 24 24z" fill="#d1e7ff" data-original="#d1e7ff" class=""></path><path d="m342.16 416.06c-40.078-13.782-39.458-13.394-43.4-15.416-15.58-7.93-25.75-24.084-25.89-41.724 31.16-12.94 53.11-43.69 53.13-79.59v-3.33c12.51 0 23-10.12 23-22.6v-81.16c0-38.24-31-69.24-69.24-69.24h-59.87c-27.108 0-51.279 15.686-62.609 39.47-1.095 2.299-3.264 3.91-5.773 4.34-11.102 1.906-19.508 11.562-19.508 23.13v84.28c0 11.815 9.471 21.78 21.94 21.78v3.17c.03 36.29 22.38 67.4 54.05 80.13l-.04.09c-.22 17.43-10.11 33.2-25.42 41.11-4.047 2.104-2.549 1.412-43.69 15.56-19.05 6.551-31.84 24.47-31.84 44.62v3.32c0 4.418 3.582 8 8 8h251c4.418 0 8-3.582 8-8v-3.32c0-20.15-12.79-38.069-31.84-44.62z" fill="#d1e7ff" data-original="#d1e7ff" class=""></path></g><path xmlns="http://www.w3.org/2000/svg" d="m374 460.68v3.32c0 4.418-3.582 8-8 8h-251c-4.418 0-8-3.582-8-8v-3.32c0-20.15 12.79-38.069 31.84-44.62 41.256-14.188 39.652-13.461 43.69-15.56 22.53 49.88 93.62 49.874 116.23.144 4.118 2.112 3.302 1.627 43.4 15.416 19.05 6.551 31.84 24.47 31.84 44.62z" fill="#b9dcff" data-original="#b9dcff" class=""></path><path xmlns="http://www.w3.org/2000/svg" d="m349 172.24v81.16c0 12.48-10.49 22.6-23 22.6v-53.16c.02-23.08-18.62-41.82-41.65-41.84h-88.62c-23.03-.02-41.77 18.65-41.79 41.73v53.27c-12.468 0-21.94-9.964-21.94-21.78 0-11.801 0-75.559 0-84.28 0-11.568 8.406-21.224 19.508-23.129 2.51-.431 4.678-2.041 5.773-4.34 11.33-23.785 35.501-39.471 62.609-39.471h59.87c38.24 0 69.24 31 69.24 69.24z" fill="#b9dcff" data-original="#b9dcff" class=""></path><path xmlns="http://www.w3.org/2000/svg" d="m472 72v50c0 13.255-10.745 24-24 24h-6.985c-1.821 0-3.383 1.239-3.868 2.994-3.445 12.469-11.924 20.681-22.744 23.889-3.253.965-6.161-2.214-4.88-5.356 2.251-5.524 3.373-11.491 3.208-17.608-.059-2.176-1.829-3.918-4.006-3.918h-91.725c-13.255 0-24-10.745-24-24v-50.001c0-13.255 10.745-24 24-24h131c13.255 0 24 10.745 24 24z" fill="#d1e7ff" data-original="#d1e7ff" class=""></path><path xmlns="http://www.w3.org/2000/svg" d="m449.265 48.033c12.805.666 12.044 19.967-.778 19.967h-91.487c-13.25 0-24.014 10.75-24 24 .019 18.644.019 30.437.002 38.039-.019 8.824-7.178 15.961-16.002 15.961-13.218 0-24-10.709-24-24v-50c0-13.255 10.745-24 24-24 86.526 0 131.283-.018 132.265.033z" fill="#e8f3ff" data-original="#e8f3ff" class=""></path><path xmlns="http://www.w3.org/2000/svg" d="m164.355 8.033c12.834.626 12.117 19.967-.733 19.967h-101.282c-13.59 0-24.348 10.75-24.34 24 .021 35.813.015 57.646-.004 71.125-.026 19.482-29.996 20.567-29.996-.125v-91c0-13.255 10.745-24 24-24 140.271 0 131.309-.018 132.355.033z" fill="#e8f3ff" data-original="#e8f3ff" class=""></path><path xmlns="http://www.w3.org/2000/svg" d="m113.824 207.955c19.574.239 24.089 27.425 5.732 34.222-25.138 9.307-45.202 33.094-44.595 63.752.115 5.823.286 11.137.257 16.058-.115 19.617-29.583 20.24-30.22.633-.052-1.606-.05 1.888-.037-46.691.009-38.062 31.168-68.434 68.863-67.974z" fill="#e8f3ff" data-original="#e8f3ff" class=""></path><path xmlns="http://www.w3.org/2000/svg" d="m136.336 404.361c-14.21 5.206-30.499 5.614-45.655.366-4.171-1.444-6.437-5.952-5.025-10.135 1.939-5.741 1.82-10.146 1.954-11.012 16.366 6.613 35.067 6.556 51.64-.38.072 3.797.729 7.504 1.901 11.01 1.387 4.149-.707 8.646-4.815 10.151z" fill="#b9dcff" data-original="#b9dcff" class=""></path><path xmlns="http://www.w3.org/2000/svg" d="m389.32 404.726c-15.157 5.248-31.447 4.839-45.655-.365-4.108-1.505-6.202-6.002-4.815-10.151 1.172-3.506 1.829-7.213 1.901-11.01 16.543 6.924 35.246 7.005 51.64.38.127.818.007 5.247 1.956 11.014 1.411 4.182-.857 8.688-5.027 10.132z" fill="#b9dcff" data-original="#b9dcff" class=""></path><path xmlns="http://www.w3.org/2000/svg" d="m244.223 341.532c13.027 4.096 10.728 23.928-4.313 23.928-47.338 0-85.95-38.553-85.97-86.29 0-.154.033-56.641.098-58.189.805-19.176 29.648-18.338 29.741.854.045 9.363.164 21.409.162 37.334-.006 38.796 25.507 71.428 60.282 82.363z" fill="#e8f3ff" data-original="#e8f3ff" class=""></path><path xmlns="http://www.w3.org/2000/svg" d="m284.255 109.13c7.266 9.908.19 23.87-12.096 23.87h-30.269c-27.11 0-51.28 15.69-62.61 39.47-1.09 2.3-3.26 3.91-5.77 4.34-11.1 1.91-19.51 11.56-19.51 23.13 0 28.652.013 10.994-.06 76.06-12.468 0-21.94-9.964-21.94-21.78v-84.28c0-11.57 8.408-21.219 19.508-23.129 2.51-.43 4.683-2.04 5.773-4.34 11.33-23.781 35.499-39.471 62.609-39.471h52.269c8.234 0 12.3 6.408 12.096 6.13z" fill="#d1e7ff" data-original="#d1e7ff" class=""></path><path xmlns="http://www.w3.org/2000/svg" d="m269.483 380.245c-18.275 6.68-38.999 7.099-58.048.364-3.989-1.411-6.159-5.643-5.066-9.731 1.884-7.047 1.403-11.088 1.621-11.578 20.376 8.217 43.853 8.342 64.88-.38.031 3.985.576 7.896 1.58 11.653 1.08 4.039-1.04 8.236-4.967 9.672z" fill="#b9dcff" data-original="#b9dcff" class=""></path><path xmlns="http://www.w3.org/2000/svg" d="m186.744 408.392c2.75 4.405.79 10.211-4.121 11.899l-16.782 5.77c-22.927 7.883-29.33 28.613-31.129 39.324-.644 3.831-3.995 6.616-7.879 6.616h-11.833c-4.418 0-8-3.582-8-8v-3.32c0-20.15 12.803-38.033 31.84-44.62 37.236-12.884 38.461-12.842 43.69-15.56 1.258 2.786 2.669 5.416 4.214 7.891z" fill="#d1e7ff" data-original="#d1e7ff" class=""></path><path xmlns="http://www.w3.org/2000/svg" d="m152.85 411.24-14.01 4.82c-19.05 6.55-31.84 24.47-31.84 44.62v3.32c0 4.42 3.58 8 8 8h-24.008c-4.396 0-7.958-3.553-8.001-7.948-.014-1.41.026-2.539.01-3.372-.607-30.384 19.3-57.44 48.04-67.32l9.03-3.11c1.769 8.24 6.319 15.66 12.779 20.99z" fill="#b9dcff" data-original="#b9dcff" class=""></path><path xmlns="http://www.w3.org/2000/svg" d="m178.34 339.36c-1.441 4.99-3.435 9.743-5.916 14.189-2.525 4.524-8.753 5.258-12.31 1.491-14.799-15.67-25.072-35.734-28.711-57.885-.345-2.1-1.596-3.919-3.352-5.12-12.084-8.263-20.051-22.159-20.051-37.815v-38.512c0-4.343 3.591-7.882 7.93-7.698 5.433.23 10.826 1.107 16.07 2.639v43.57c0 11.815 9.471 21.78 21.94 21.78v3.17c.02 23.391 9.31 44.641 24.4 60.191z" fill="#b9dcff" data-original="#b9dcff" class=""></path><path xmlns="http://www.w3.org/2000/svg" d="m365.078 207.975c4.357-.121 7.922 3.46 7.922 7.819v37.606c0 16.167-8.346 30.436-20.988 38.797-1.839 1.216-3.147 3.094-3.507 5.27-3.611 21.809-13.624 41.753-28.493 57.488-3.612 3.822-9.94 3.079-12.497-1.517-2.459-4.42-4.436-9.143-5.865-14.099 27.546-28.369 24.059-61.839 24.35-63.34 12.51 0 23-10.12 23-22.6v-43.03c5.306-1.465 10.734-2.246 16.078-2.394z" fill="#b9dcff" data-original="#b9dcff" class=""></path><path xmlns="http://www.w3.org/2000/svg" d="m398 460.68c-.017.869.015 1.988.003 3.354-.04 4.402-3.599 7.966-8.001 7.966h-24.002c4.42 0 8-3.58 8-8v-3.32c0-20.15-12.79-38.07-31.84-44.62l-14.72-5.06c6.39-5.39 10.86-12.83 12.55-21.07l9.97 3.43c28.74 9.88 48.647 36.936 48.04 67.32z" fill="#b9dcff" data-original="#b9dcff" class=""></path><g xmlns="http://www.w3.org/2000/svg" fill="#2e58ff"><path d="m344.763 408.491-3.465-1.192c2.714-4.126 4.736-8.661 5.983-13.432 48.334 12.948 95.724-23.548 95.759-73.453v-44.485c-.019-34.216-23.072-64.369-56.057-73.327-4.264-1.159-8.659 1.36-9.817 5.624-1.157 4.264 1.36 8.659 5.624 9.817 26.037 7.071 44.236 30.878 44.25 57.892v44.475c-.034 48.631-55.385 77.485-95.192 48.674-3.583-2.591-8.582-1.788-11.171 1.791-2.591 3.579-1.789 8.581 1.79 11.171 3.119 2.257 6.378 4.252 9.748 5.993-.994 5.097-3.345 9.86-6.815 13.793l-17.994-6.188c-5.192-1.786-9.876-4.599-13.918-8.359-3.235-3.01-8.297-2.827-11.307.409-3.01 3.235-2.826 8.297.408 11.306 1.773 1.649 3.643 3.153 5.586 4.54-16.893 27.764-53.021 33.656-78.041 17.535-3.713-2.394-8.665-1.322-11.058 2.391-2.394 3.714-1.323 8.665 2.392 11.058 33.045 21.295 79.779 12.565 100.992-23.661 3.268 1.124 28.648 9.853 37.098 12.759 15.815 5.439 26.44 20.33 26.44 37.054v11.324c0 4.418 3.582 8 8 8s8-3.582 8-8v-11.325c.002-23.552-14.963-44.524-37.235-52.184z" fill="#00365a" data-original="#2e58ff" class=""></path><path d="m178.797 410.773c18.525-6.371 32.057-22.075 35.988-40.748 58.533 16.336 116.786-26.758 119.135-87.042 13.269-3.464 23.08-15.414 23.08-29.587v-78.069c0-4.418-3.582-8-8-8s-8 3.582-8 8v78.069c0 5.075-2.831 9.634-7 12.261v-42.811c.019-27.467-22.254-49.828-49.654-49.847h-88.609c-27.553 0-49.746 22.267-49.765 49.719v56.453c.026 37.495 21.933 69.945 53.584 85.126-2.063 14.302-12.015 26.549-25.962 31.345l-18.759 6.451c-3.601-3.981-6.037-8.836-7.052-14.051 3.816-1.973 7.49-4.274 10.984-6.91 3.526-2.662 4.227-7.679 1.564-11.205-2.661-3.527-7.679-4.227-11.205-1.565-4.023 3.037-8.345 5.519-12.888 7.432-40.971 16.668-83.249-13.497-83.279-55.378v-44.479c.015-27.025 18.22-50.833 44.267-57.899 4.264-1.157 6.783-5.551 5.626-9.815-1.155-4.264-5.55-6.781-9.815-5.627-32.997 8.951-56.059 39.106-56.078 73.335v44.489c.021 29.732 17.168 55.517 42.064 68.014-2.026 9.953-9.219 18.367-19.057 21.75l-29.46 10.132c-18.246 6.276-30.506 23.457-30.506 42.753v8.931c0 4.418 3.582 8 8 8s8-3.582 8-8v-8.931c0-12.467 7.921-23.568 19.71-27.623l29.46-10.132c14.41-4.956 25.179-16.88 28.966-31.21 12.786 3.273 26.13 3.098 38.58-.233 1.275 4.881 3.36 9.511 6.167 13.709l-2.646.91c-22.272 7.661-37.237 28.633-37.237 52.185v11.325c0 4.418 3.582 8 8 8s8-3.582 8-8v-11.325c0-16.724 10.626-31.615 26.44-37.054 37.045-12.741-.333.115 37.357-12.848zm-16.825-131.599v-56.442c.012-18.625 15.062-33.732 33.758-33.732h88.609c18.573.013 33.673 15.191 33.66 33.836-.002 3.079.024-14.695 0 56.493-.015 43.081-35.06 78.129-78.088 78.129-42.961 0-77.909-35.124-77.939-78.284z" fill="#00365a" data-original="#2e58ff" class=""></path><path d="m150.101 138.934c-14.997 2.609-26.101 15.706-26.101 30.956v84.327c0 4.418 3.582 8 8 8s8-3.582 8-8v-84.277c0-8.531 6.967-15.472 15.53-15.472 3.269 0 6.209-1.989 7.426-5.023 9.363-23.355 31.712-38.445 56.935-38.445h46.399c4.418 0 8-3.582 8-8s-3.582-8-8-8h-46.399c-30.126 0-57.004 17.086-69.79 43.934z" fill="#00365a" data-original="#2e58ff" class=""></path><path d="m449.493 420.317-29.46-10.132c-4.175-1.438-8.729.785-10.167 4.963-1.437 4.178.785 8.73 4.964 10.167l29.46 10.132c11.789 4.055 19.71 15.155 19.71 27.623v8.93c0 4.418 3.582 8 8 8s8-3.582 8-8v-8.931c0-19.296-12.26-36.477-30.507-42.752z" fill="#00365a" data-original="#2e58ff" class=""></path><path d="m448 40h-131c-17.645 0-32 14.355-32 32v50c0 17.645 14.355 32 32 32h87.637c-.459 5.656-2.276 11.121-5.38 16.087-3.453 5.522.815 12.624 7.256 12.227 17.889-1.06 31.753-11.719 37.46-28.313h4.027c17.645 0 32-14.355 32-32v-50.001c0-17.645-14.355-32-32-32zm16 82c0 8.822-7.178 16-16 16h-10.135c-3.81 0-7.09 2.686-7.843 6.42-1.492 7.409-5.114 13.26-10.313 17.056 1.099-5.335 1.338-10.846.69-16.403-.471-4.033-3.887-7.074-7.946-7.074h-95.453c-8.822 0-16-7.178-16-16v-49.999c0-8.822 7.178-16 16-16h131c8.822 0 16 7.178 16 16z" fill="#00365a" data-original="#2e58ff" class=""></path><path d="m367.359 93.79c-2.924-6.685-12.095-6.435-14.779 0-2.193 5.366 1.775 11.07 7.39 11.07 5.659 0 9.562-5.755 7.389-11.07z" fill="#00365a" data-original="#2e58ff" class=""></path><path d="m416.39 93.79c-1.969-4.72-7.737-6.347-11.83-3.59-3.503 2.312-4.76 7.232-2.21 11.1 2.451 3.635 7.31 4.676 11.09 2.21 3.029-1.996 4.46-6.026 2.95-9.72z" fill="#00365a" data-original="#2e58ff" class=""></path><path d="m32 155h4.027c5.707 16.595 19.571 27.254 37.46 28.313 6.426.397 10.718-6.689 7.256-12.227-3.104-4.966-4.921-10.431-5.38-16.087h24.733c4.418 0 8-3.582 8-8s-3.582-8-8-8h-32.55c-4.06 0-7.476 3.041-7.946 7.074-.647 5.557-.408 11.068.69 16.403-5.198-3.796-8.82-9.647-10.313-17.056-.753-3.734-4.033-6.42-7.843-6.42h-10.134c-8.822 0-16-7.178-16-16v-91c0-8.822 7.178-16 16-16h131c8.822 0 16 7.178 16 16v39.664c0 4.418 3.582 8 8 8s8-3.582 8-8v-39.664c0-17.645-14.355-32-32-32h-131c-17.645 0-32 14.355-32 32v91c0 17.645 14.355 32 32 32z" fill="#00365a" data-original="#2e58ff" class=""></path><path d="m145 53c0-4.418-3.582-8-8-8h-79c-4.418 0-8 3.582-8 8s3.582 8 8 8h79c4.418 0 8-3.582 8-8z" fill="#00365a" data-original="#2e58ff" class=""></path><path d="m58 93c-4.418 0-8 3.582-8 8s3.582 8 8 8h39.5c4.418 0 8-3.582 8-8s-3.582-8-8-8z" fill="#00365a" data-original="#2e58ff" class=""></path></g></g></svg>