<svg xmlns="http://www.w3.org/2000/svg" version="1.1" xmlns:xlink="http://www.w3.org/1999/xlink" xmlns:svgjs="http://svgjs.com/svgjs" width="512" height="512" x="0" y="0" viewBox="0 0 480 480" style="enable-background:new 0 0 512 512" xml:space="preserve" class=""><g><path xmlns="http://www.w3.org/2000/svg" d="m423 213h-52v-181c0-13.25-10.75-24-24-24h-290c-13.25 0-24 10.75-24 24v402c0 20.99 17.01 38 38 38h338c20.99 0 38-17.01 38-38v-197c0-13.25-10.75-24-24-24z" fill="#d1e7ff" data-original="#d1e7ff" class=""></path><path xmlns="http://www.w3.org/2000/svg" d="m447 237v197c0 20.99-17.01 38-38 38s-38-17.01-38-38v-221h52c13.25 0 24 10.75 24 24z" fill="#b9dcff" data-original="#b9dcff"></path><path xmlns="http://www.w3.org/2000/svg" d="m409 462.913c0 5.262-5.002 9.129-10.077 7.737-16.098-4.415-27.923-19.149-27.923-36.65v-221h7.996c4.42 0 8.004 3.583 8.004 8.004v212.996c0 10.118 6.867 18.664 16.185 21.22 3.449.946 5.815 4.116 5.815 7.693z" fill="#a2d0ff" data-original="#a2d0ff"></path><g xmlns="http://www.w3.org/2000/svg" fill="#e8f3ff"><path d="m347.099 38h-250.09c-13.26 0-24.009 10.759-24.009 24.019 0 228.468-.129 328.14-.054 372.323.044 26.056-39.946 27.488-39.946-.342v-402c0-13.255 10.745-24 24-24h290c20.685 0 19.614 30 .099 30z" fill="#e8f3ff" data-original="#e8f3ff" class=""></path><path d="m308 71v56c0 2.209-1.791 4-4 4h-204c-2.209 0-4-1.791-4-4v-56c0-2.209 1.791-4 4-4h204c2.209 0 4 1.791 4 4z" fill="#e8f3ff" data-original="#e8f3ff" class=""></path><path d="m308 304v94c0 2.209-1.791 4-4 4h-79c-2.209 0-4-1.791-4-4v-94c0-2.209 1.791-4 4-4h79c2.209 0 4 1.791 4 4z" fill="#e8f3ff" data-original="#e8f3ff" class=""></path></g><g xmlns="http://www.w3.org/2000/svg" fill="#2e58ff"><path d="m423 205h-14c-4.418 0-8 3.582-8 8s3.582 8 8 8h14c8.822 0 16 7.178 16 16v197c0 16.542-13.458 30-30 30s-30-13.458-30-30v-402c0-17.645-14.355-32-32-32h-290c-17.645 0-32 14.355-32 32v402c0 25.364 20.636 46 46 46h254.613c4.418 0 8-3.582 8-8s-3.582-8-8-8h-254.613c-16.542 0-30-13.458-30-30v-402c0-8.822 7.178-16 16-16h290c8.822 0 16 7.178 16 16v402c0 25.364 20.636 46 46 46s46-20.636 46-46v-197c0-17.645-14.355-32-32-32z" fill="#00365a" data-original="#2e58ff" class=""></path><path d="m316 67c0-4.418-3.582-8-8-8h-212c-4.418 0-8 3.582-8 8v64c0 4.418 3.582 8 8 8s8-3.582 8-8v-56h196v48h-153.226c-4.418 0-8 3.582-8 8s3.582 8 8 8h161.226c4.418 0 8-3.582 8-8z" fill="#00365a" data-original="#2e58ff" class=""></path><path d="m308 366.549c4.418 0 8-3.582 8-8v-58.549c0-4.418-3.582-8-8-8h-87c-4.418 0-8 3.582-8 8v102c0 4.418 3.582 8 8 8h87c4.418 0 8-3.582 8-8s-3.582-8-8-8h-79v-86h71v50.549c0 4.418 3.582 8 8 8z" fill="#00365a" data-original="#2e58ff" class=""></path><path d="m96 190h155c4.418 0 8-3.582 8-8s-3.582-8-8-8h-155c-4.418 0-8 3.582-8 8s3.582 8 8 8z" fill="#00365a" data-original="#2e58ff" class=""></path><path d="m308 229h-144.709c-4.418 0-8 3.582-8 8s3.582 8 8 8h144.709c4.418 0 8-3.582 8-8s-3.582-8-8-8z" fill="#00365a" data-original="#2e58ff" class=""></path><path d="m96 245h25.484c4.418 0 8-3.582 8-8s-3.582-8-8-8h-25.484c-4.418 0-8 3.582-8 8s3.582 8 8 8z" fill="#00365a" data-original="#2e58ff" class=""></path><path d="m169 339h-73c-4.418 0-8 3.582-8 8s3.582 8 8 8h73c4.418 0 8-3.582 8-8s-3.582-8-8-8z" fill="#00365a" data-original="#2e58ff" class=""></path><path d="m169 284h-73c-4.418 0-8 3.582-8 8s3.582 8 8 8h73c4.418 0 8-3.582 8-8s-3.582-8-8-8z" fill="#00365a" data-original="#2e58ff" class=""></path><path d="m169 394h-73c-4.418 0-8 3.582-8 8s3.582 8 8 8h73c4.418 0 8-3.582 8-8s-3.582-8-8-8z" fill="#00365a" data-original="#2e58ff" class=""></path><path d="m308 174h-15c-4.418 0-8 3.582-8 8s3.582 8 8 8h15c4.418 0 8-3.582 8-8s-3.582-8-8-8z" fill="#00365a" data-original="#2e58ff" class=""></path></g></g></svg>