<svg xmlns="http://www.w3.org/2000/svg" version="1.1" xmlns:xlink="http://www.w3.org/1999/xlink" xmlns:svgjs="http://svgjs.com/svgjs" width="512" height="512" x="0" y="0" viewBox="0 0 479.965 479.965" style="enable-background:new 0 0 512 512" xml:space="preserve" class=""><g><path xmlns="http://www.w3.org/2000/svg" d="m465.706 73.302c8.37 110.93 8.38 222.37 0 333.36-2.38 31.57-27.47 56.66-59.04 59.04-110.93 8.37-222.37 8.38-333.36 0-31.57-2.38-56.66-27.47-59.04-59.04-8.37-110.93-8.38-222.37 0-333.36 2.38-31.57 27.47-56.66 59.04-59.04 110.93-8.37 222.37-8.38 333.36 0 31.57 2.38 56.66 27.47 59.04 59.04z" fill="#d1e7ff" data-original="#d1e7ff"></path><path xmlns="http://www.w3.org/2000/svg" d="m13.632 398.033c-7.731-108.079-7.529-216.618.634-324.731 2.38-31.57 27.47-56.66 59.04-59.04 110.93-8.37 222.37-8.38 333.36 0 20.433 1.539 16.666 27.946-.389 26.978-63.575-3.608-176.579-5.76-292.971 3.022-31.57 2.38-56.66 27.47-59.04 59.04-7.346 97.296-8.245 194.938-2.716 292.279 1.442 25.39-36.203 26.436-37.918 2.452z" fill="#e8f3ff" data-original="#e8f3ff" class=""></path><path xmlns="http://www.w3.org/2000/svg" d="m396.986 187.232v177.75c0 17.67-14.33 32-32 32h-31v-166c0-13.25-10.75-24-24-24h-140c-13.25 0-24 10.75-24 24v166h-31c-17.67 0-32-14.33-32-32v-250c0-17.67 14.33-32 32-32h177.749c8.48 0 16.621 3.37 22.621 9.37l72.26 72.26c6 6 9.37 14.14 9.37 22.62z" fill="#b9dcff" data-original="#b9dcff" class=""></path><path xmlns="http://www.w3.org/2000/svg" d="m333.986 230.982v166h-188v-166c0-13.25 10.75-24 24-24h140c13.25 0 24 10.75 24 24z" fill="#d1e7ff" data-original="#d1e7ff"></path><path xmlns="http://www.w3.org/2000/svg" d="m82.986 356.955v-241.973c0-17.673 14.327-32 32-32h177.749c8.485 0 16.621 3.37 22.621 9.37 3.917 3.917 1.144 10.624-4.396 10.622h-165.974c-17.67-.003-32 14.338-32 32.008v221.972c0 19.671-30 19.595-30 .001z" fill="#d1e7ff" data-original="#d1e7ff"></path><path xmlns="http://www.w3.org/2000/svg" d="m310.66 221.982h-115.674c-13.255 0-24 10.745-24 24v143c0 4.418-3.582 8-8 8h-17v-166c0-13.255 10.745-24 24-24 0 0 140.837.011 141.251.032 9.603.494 9.039 14.968-.577 14.968z" fill="#e8f3ff" data-original="#e8f3ff" class=""></path><g xmlns="http://www.w3.org/2000/svg" fill="#2e58ff"><path d="m183.954 396.982c0 4.418 3.582 8 8 8h173.032c22.056 0 40-17.944 40-40v-177.745c0-10.685-4.161-20.729-11.716-28.284l-72.255-72.255c-7.555-7.555-17.6-11.716-28.284-11.716h-177.745c-22.056 0-40 17.944-40 40v250c0 22.056 17.944 40 40 40h31c4.418 0 8-3.582 8-8v-166c0-8.822 7.178-16 16-16h140c8.822 0 16 7.178 16 16v120.452c0 4.418 3.582 8 8 8s8-3.582 8-8v-120.452c0-17.645-14.355-32-32-32h-140c-17.645 0-32 14.355-32 32v158h-23c-13.234 0-24-10.766-24-24v-250c0-13.234 10.766-24 24-24h177.745c6.411 0 12.438 2.497 16.971 7.029l72.255 72.255c4.533 4.533 7.029 10.56 7.029 16.971v177.745c0 13.234-10.766 24-24 24h-173.032c-4.419 0-8 3.582-8 8z" fill="#00365a" data-original="#2e58ff" class=""></path><path d="m278.986 290.982c4.418 0 8-3.582 8-8s-3.582-8-8-8h-40c-4.418 0-8 3.582-8 8s3.582 8 8 8z" fill="#00365a" data-original="#2e58ff" class=""></path><path d="m203.566 274.982h-2.581c-4.418 0-8 3.582-8 8s3.582 8 8 8h2.581c4.418 0 8-3.582 8-8s-3.581-8-8-8z" fill="#00365a" data-original="#2e58ff" class=""></path><path d="m204.986 342.982c0 4.418 3.582 8 8 8h54c4.418 0 8-3.582 8-8s-3.582-8-8-8h-54c-4.419 0-8 3.582-8 8z" fill="#00365a" data-original="#2e58ff" class=""></path><path d="m473.683 72.698c-2.681-35.531-30.946-63.735-66.413-66.413-111.003-8.376-223.568-8.376-334.568 0-35.532 2.682-63.736 30.946-66.413 66.414-.332 4.406 2.97 8.247 7.375 8.58 4.407.327 8.247-2.97 8.58-7.375 2.101-27.835 23.828-49.562 51.662-51.663 110.201-8.316 221.956-8.316 332.16 0 27.835 2.101 49.562 23.828 51.663 51.662 8.316 110.204 8.316 221.959 0 332.16-2.101 27.835-23.828 49.562-51.662 51.663-110.204 8.316-221.959 8.316-332.16 0-27.835-2.101-49.562-23.828-51.663-51.662-6.806-90.18-8.055-181.708-3.713-272.039.212-4.414-3.193-8.163-7.606-8.375-4.41-.219-8.163 3.193-8.375 7.606-4.374 90.986-3.115 183.177 3.739 274.011 2.682 35.531 30.946 63.735 66.414 66.413 110.123 8.31 222.682 8.443 334.568 0 35.531-2.682 63.735-30.946 66.413-66.414 8.375-111 8.375-223.565-.001-334.568z" fill="#00365a" data-original="#2e58ff" class=""></path></g></g></svg>