<svg xmlns="http://www.w3.org/2000/svg" version="1.1" xmlns:xlink="http://www.w3.org/1999/xlink"
     xmlns:svgjs="http://svgjs.com/svgjs" width="512" height="512" x="0" y="0" viewBox="0 0 58 58"
     style="enable-background:new 0 0 512 512" xml:space="preserve" class=""><g><g xmlns="http://www.w3.org/2000/svg" id="Page-1" fill="none" fill-rule="evenodd"><g id="004---Peach" fill-rule="nonzero" transform="translate(0 -1)"><path id="Shape" d="m6.87 10.77c-3.05-1.36-4.39-3.33-3.68-4.77.99-2 6.81-4 12.9-4 3.8402718-.1156654 7.5359781 1.46873148 10.1 4.33-.1124122.69451604-.172581 1.39648454-.18 2.1z" fill="#4fba6f" data-original="#4fba6f" class=""></path><path
    id="Shape"
    d="m31.36 4.47c-1.23 1.14-1.44 3.16-1.34 4.82-.1746667.09-.347.18033333-.517.271s-.3376667.18366667-.503.279c-.58-.329-1.178-.637-1.792-.914-.3926667-.178-.7926667-.34466667-1.2-.5.007419-.70351546.0675878-1.40548396.18-2.1.2673238-1.82565605 1.1283197-3.51250508 2.45-4.8.8118586-.75110722 2.0788927-.70185852 2.83.11000004.7511072.81185857.7018585 2.07889269-.11 2.82999996z"
    fill="#a65a47" data-original="#a65a47"></path><path id="Shape"
                                                        d="m32.95 8.08c4.4077896-3.81389383 10.3559686-5.3259543 16.05-4.08 4.72.94 12.1 6.33 5.37 10.3z"
                                                        fill="#4fba6f" data-original="#4fba6f" class=""></path><path
    id="Shape"
    d="m58 28c0 16.02-12.98 31-29 31s-29-14.98-29-31c0-8.37 2.8-13.94 6.87-17.23 5.36-4.34 12.91-4.72 19.14-2.34 1.0322324.39055181 2.0320074.86201765 2.99 1.41.33-.19.67-.37 1.02-.55s.72-.34 1.09-.5c.5965739-.26702394 1.2075143-.50071696 1.83-.7l.01-.01c7.45-2.45 16.49-1.03 21.42 6.22 2.24 3.3 3.63 7.81 3.63 13.7z"
    fill="#f09372" data-original="#f09372" class=""></path><path id="Shape"
                                                                 d="m35.13 13.9c-.2046927.1704721-.4692442.2516511-.7343237.2253312-.2650794-.02632-.5085023-.1579362-.6756763-.3653312-1.3172294-1.5874618-2.9176688-2.9166403-4.72-3.92.6817887-.39172008 1.386378-.74234509 2.11-1.05 1.5699108 1.01445071 2.9732138 2.2659541 4.16 3.71.345039.4261303.2825888 1.0506324-.14 1.4z"
                                                                 fill="#f0785a" data-original="#f0785a"></path><path
    id="Shape"
    d="m25 29c-.3346327.0003846-.6472789-.1666353-.833-.445-.067-.097-1.814-2.555-6.167-2.555s-6.1 2.457-6.172 2.562c-.3081749.4583963-.9296037.5801749-1.388.272-.45839634-.3081749-.58017489-.9296037-.272-1.388.094-.14 2.36-3.446 7.832-3.446s7.738 3.305 7.832 3.446c.2041777.3068254.2230382.7010866.0490814 1.0260011s-.5125297.5278085-.8810814.5279989z"
    fill="#35495e" data-original="#35495e"></path><path id="Shape"
                                                        d="m47 29c-.3346327.0003846-.6472789-.1666353-.833-.445-.067-.097-1.814-2.555-6.167-2.555s-6.1 2.457-6.172 2.562c-.3081749.4583963-.9296036.5801748-1.388.2719999-.4583963-.3081748-.5801748-.9296036-.272-1.3879999.094-.14 2.36-3.446 7.832-3.446s7.738 3.305 7.832 3.446c.2041777.3068254.2230382.7010866.0490814 1.0260011s-.5125297.5278085-.8810814.5279989z"
                                                        fill="#35495e" data-original="#35495e"></path><path id="Shape"
                                                                                                            d="m11 22c-.3458652-.0005292-.6669022-.1797419-.8488731-.4738671-.18197088-.2941252-.19903751-.6613999-.0451269-.9711329 1.5953279-2.8526453 4.6258953-4.6013449 7.894-4.555.5522847 0 1 .4477153 1 1s-.4477153 1-1 1c-2.5127268-.0475529-4.85259 1.2748452-6.108 3.452-.1703299.3361445-.515164.5479932-.892.548z"
                                                                                                            fill="#e64c3c"
                                                                                                            data-original="#e64c3c"
                                                                                                            class=""></path><path
    id="Shape"
    d="m47 22c-.3775557.000748-.7233452-.2112125-.894-.548-1.2550617-2.1765196-3.5939838-3.4988188-6.106-3.452-.5522847 0-1-.4477153-1-1s.4477153-1 1-1c3.2698198-.0489643 6.3031194 1.6992146 7.9 4.553.1186659.2373497.1381283.5121326.0541012.7638386-.084027.251706-.2646527.4596935-.5021012.5781614-.1402074.0703511-.2951383.1063416-.452.105z"
    fill="#e64c3c" data-original="#e64c3c" class=""></path><path id="Shape"
                                                                 d="m29 46c-9.373 0-13.6-5.155-13.781-5.375-.3407114-.4315746-.2690699-1.0572621.1603755-1.4006534.4294453-.3433912 1.0555666-.275646 1.4016245.1516534.151.186 3.858 4.624 12.219 4.624s12.068-4.439 12.222-4.627c.3497674-.41605.9678085-.4765379 1.391604-.1361966.4237956.3403412.4981397.9568691.167396 1.3881966-.176.221-4.408 5.375-13.781 5.375z"
                                                                 fill="#e64c3c" data-original="#e64c3c" class=""></path><g
    fill="#f0785a"><path id="Shape" d="m29 50c-1.0371695-.0008032-2.0735865-.0558785-3.105-.165-.5492472-.0579899-.9474899-.5502528-.8895-1.0995s.5502528-.9474899 1.0995-.8895c1.9245563.2050018 3.8654437.2050018 5.79 0 .5492472-.0579899 1.0415101.3402528 1.0995.8895s-.3402528 1.0415101-.8895 1.0995c-1.0314135.1091215-2.0678305.1641968-3.105.165z" fill="#f0785a" data-original="#f0785a"></path>
    <path id="Shape"
          d="m12 41c-.0822031.0001718-.1641272-.0095651-.244-.029-.5357071-.1342174-.8611901-.677286-.727-1.213 1.177-4.702 4.817-4.758 4.971-4.758.3572656-.0021436.6885362.1864746.8690254.4948038.1804892.3083293.1827764.6895272.006 1-.1767764.3104729-.5057598.5030526-.8630254.5051962-.239.008-2.271.161-3.042 3.243-.1114591.4449311-.5113206.7569879-.97.757z"
          fill="#f0785a" data-original="#f0785a"></path>
    <path id="Shape"
          d="m46 41c-.4583065-.0004704-.8576317-.3124303-.969-.757-.773-3.09-2.813-3.236-3.044-3.243-.5479161-.0152261-.9830217-.4658871-.979-1.014.0075957-.5437095.4482545-.981703.992-.986.154 0 3.794.055 4.97 4.758.1341901.535714-.1912929 1.0787826-.727 1.213-.0795478.0193552-.1611314.0290916-.243.029z"
          fill="#f0785a" data-original="#f0785a"></path></g></g></g></g></svg>
