<svg xmlns="http://www.w3.org/2000/svg" version="1.1" xmlns:xlink="http://www.w3.org/1999/xlink"
     xmlns:svgjs="http://svgjs.com/svgjs" width="512" height="512" x="0" y="0" viewBox="0 0 50 58"
     style="enable-background:new 0 0 512 512" xml:space="preserve" class=""><g><g xmlns="http://www.w3.org/2000/svg" id="Page-1" fill="none" fill-rule="evenodd"><g id="006---Aubergine" fill-rule="nonzero"><path id="Shape" d="m40 15h.02s0 7 6 15c9.14 12.19 0 28-21 28h-.02c-21 0-30.14-15.81-21-28 6-8 6-15 6-15l8-4h14z" fill="#5d4c72" data-original="#5d4c72" class=""></path><path
    id="Shape"
    d="m40.02 15h-.02c.0170844.8007647-.2934968 1.5737931-.8598518 2.1401482-.5663551.566355-1.3393835.8769362-2.1401482.8598518-3 0-2-4-5-4s-3 7-7 7-4-7-7-7-2 4-5 4c-.8007647.0170844-1.5737931-.2934968-2.1401482-.8598518-.566355-.5663551-.87693625-1.3393835-.8598518-2.1401482.0139098-2.7019747 1.1146993-5.28464921 3.0542458-7.16587761 1.9395464-1.8812284 4.5546136-2.90268258 7.2557542-2.83412239h2.69v-3c-.0028231-.53059053.2101411-1.0395388.59-1.41.3704612-.3798589.8794095-.59282307 1.41-.59 1.1032019.0032948 1.9967052.89679813 2 2v3h2.71c2.7011406-.06856019 5.3162078.95289399 7.2557542 2.83412239 1.9395465 1.8812284 3.040336 4.46390291 3.0542458 7.16587761z"
    fill="#26b99a" data-original="#26b99a" class=""></path><path id="Shape"
                                                                 d="m25 54c7.482 0 9.46-5.724 9.983-8.751.074918-.3616721-.0491612-.7358072-.3253535-.9810362-.2761922-.2452291-.6623825-.3241583-1.0126465-.2069638-5.5953294 1.9680065-11.6946706 1.9680065-17.29 0-.3501172-.117714-.7364559-.0391324-1.0127701.2059984s-.4003788.6193508-.3252299.9810016c.523 3.027 2.501 8.752 9.983 8.752z"
                                                                 fill="#3d324c" data-original="#3d324c"></path><ellipse
    id="Oval" cx="34" cy="32" fill="#ecf0f1" rx="7" ry="8" data-original="#ecf0f1" class=""></ellipse><ellipse id="Oval"
                                                                                                               cx="16"
                                                                                                               cy="32"
                                                                                                               fill="#ecf0f1"
                                                                                                               rx="7"
                                                                                                               ry="8"
                                                                                                               data-original="#ecf0f1"
                                                                                                               class=""></ellipse><ellipse
    id="Oval" cx="17" cy="32" fill="#2fa8cc" rx="4" ry="5" data-original="#2fa8cc"></ellipse><ellipse id="Oval" cx="33"
                                                                                                      cy="32"
                                                                                                      fill="#2fa8cc"
                                                                                                      rx="4" ry="5"
                                                                                                      data-original="#2fa8cc"></ellipse><ellipse
    id="Oval" cx="17" cy="32" fill="#35495e" rx="2" ry="3" data-original="#35495e"></ellipse><ellipse id="Oval" cx="33"
                                                                                                      cy="32"
                                                                                                      fill="#35495e"
                                                                                                      rx="2" ry="3"
                                                                                                      data-original="#35495e"></ellipse><g
    fill="#ecf0f1"><circle id="Oval" cx="19" cy="30" r="2" fill="#ecf0f1" data-original="#ecf0f1" class=""></circle>
    <circle id="Oval" cx="35" cy="30" r="2" fill="#ecf0f1" data-original="#ecf0f1" class=""></circle></g></g></g></g></svg>
