<svg xmlns="http://www.w3.org/2000/svg" version="1.1" xmlns:xlink="http://www.w3.org/1999/xlink"
     xmlns:svgjs="http://svgjs.com/svgjs" width="512" height="512" x="0" y="0" viewBox="0 0 60 60"
     style="enable-background:new 0 0 512 512" xml:space="preserve" class=""><g><circle xmlns="http://www.w3.org/2000/svg" cx="30" cy="30" fill="#f0c419" r="29" data-original="#f0c419" class=""></circle><path
    xmlns="http://www.w3.org/2000/svg"
    d="m32 47.15a1.061 1.061 0 0 1 -.158-.012 12.443 12.443 0 0 0 -3.686 0 1 1 0 0 1 -.314-1.976 14.507 14.507 0 0 1 4.314 0 1 1 0 0 1 -.156 1.988z"
    fill="#f29c1f" data-original="#f29c1f"></path><path xmlns="http://www.w3.org/2000/svg"
                                                        d="m40 46a.987.987 0 0 1 -.6-.2 17.18 17.18 0 0 0 -18.8 0 1 1 0 0 1 -1.2-1.6 19.156 19.156 0 0 1 21.2 0 1 1 0 0 1 -.6 1.8z"
                                                        fill="#e57e25" data-original="#e57e25"></path><path
    xmlns="http://www.w3.org/2000/svg"
    d="m19 50a3.887 3.887 0 0 1 -4-4 1 1 0 0 1 2-.006 1.885 1.885 0 0 0 2 2.006 1 1 0 0 1 0 2z" fill="#f29c1f"
    data-original="#f29c1f"></path><path xmlns="http://www.w3.org/2000/svg"
                                         d="m41 50a1 1 0 0 1 0-2 1.884 1.884 0 0 0 2-2.007 1 1 0 0 1 2 .007 3.887 3.887 0 0 1 -4 4z"
                                         fill="#f29c1f" data-original="#f29c1f"></path><path
    xmlns="http://www.w3.org/2000/svg"
    d="m17.737 31.986a10.368 10.368 0 0 1 -6.337-2.186 1 1 0 0 1 1.2-1.6c5.338 4 10.746.041 10.8 0a1 1 0 1 1 1.2 1.6 12.674 12.674 0 0 1 -6.863 2.186z"
    fill="#35495e" data-original="#35495e"></path><path xmlns="http://www.w3.org/2000/svg"
                                                        d="m10 24a1 1 0 0 1 -.008-2c.154 0 3.379-.12 5.079-4.372a1 1 0 0 1 1.858.744c-2.229 5.564-6.738 5.628-6.929 5.628z"
                                                        fill="#e57e25" data-original="#e57e25"></path><path
    xmlns="http://www.w3.org/2000/svg"
    d="m42.263 31.986a12.67 12.67 0 0 1 -6.863-2.186 1 1 0 0 1 1.2-1.6c.223.165 5.491 3.982 10.8 0a1 1 0 1 1 1.2 1.6 10.368 10.368 0 0 1 -6.337 2.186z"
    fill="#35495e" data-original="#35495e"></path><path xmlns="http://www.w3.org/2000/svg"
                                                        d="m50 24c-.191 0-4.7-.064-6.929-5.628a1 1 0 0 1 1.858-.744c1.7 4.264 4.943 4.37 5.08 4.372a1 1 0 0 1 -.009 2z"
                                                        fill="#e57e25" data-original="#e57e25"></path><path
    xmlns="http://www.w3.org/2000/svg"
    d="m13 13a6 6 0 0 1 -12 0c0-3.291 2.6-7.448 4.376-9.9a2 2 0 0 1 3.248 0c1.776 2.452 4.376 6.609 4.376 9.9z"
    fill="#2fa8cc" data-original="#2fa8cc"></path><path xmlns="http://www.w3.org/2000/svg"
                                                        d="m7 16a3 3 0 0 1 -3-3 1 1 0 0 1 2 0 1 1 0 0 0 1 1 1 1 0 0 1 0 2z"
                                                        fill="#67b9cc" data-original="#67b9cc"></path><path
    xmlns="http://www.w3.org/2000/svg"
    d="m59 13a6 6 0 0 1 -12 0c0-3.291 2.6-7.448 4.376-9.9a2 2 0 0 1 3.248 0c1.776 2.452 4.376 6.609 4.376 9.9z"
    fill="#2fa8cc" data-original="#2fa8cc"></path><path xmlns="http://www.w3.org/2000/svg"
                                                        d="m53 16a3 3 0 0 1 -3-3 1 1 0 0 1 2 0 1 1 0 0 0 1 1 1 1 0 0 1 0 2z"
                                                        fill="#67b9cc" data-original="#67b9cc"></path></g></svg>
