<svg xmlns="http://www.w3.org/2000/svg" version="1.1" xmlns:xlink="http://www.w3.org/1999/xlink"
     xmlns:svgjs="http://svgjs.com/svgjs" width="512" height="512" x="0" y="0" viewBox="0 0 64 64"
     style="enable-background:new 0 0 512 512" xml:space="preserve" class=""><g><linearGradient xmlns="http://www.w3.org/2000/svg" id="linear-gradient" gradientUnits="userSpaceOnUse" x1="32" x2="32" y1="1.304" y2="63.304"><stop offset="0" stop-color="#ffe100"></stop><stop
    offset="1" stop-color="#f98900"></stop></linearGradient><linearGradient xmlns="http://www.w3.org/2000/svg"
                                                                            id="linear-gradient-2"
                                                                            gradientUnits="userSpaceOnUse" x1="43"
                                                                            x2="43" y1="29.725" y2="20.193"><stop offset=".005" stop-color="#414d4d"></stop>
    <stop offset=".206" stop-color="#3a4545"></stop>
    <stop offset=".522" stop-color="#272e2e"></stop>
    <stop offset=".914" stop-color="#080909"></stop>
    <stop offset="1"></stop></linearGradient><linearGradient xmlns="http://www.w3.org/2000/svg" id="linear-gradient-3"
                                                             x1="21" x2="21" xmlns:xlink="http://www.w3.org/1999/xlink"
                                                             xlink:href="#linear-gradient-2" y1="29.856"
                                                             y2="20.875"></linearGradient><linearGradient
    xmlns="http://www.w3.org/2000/svg" id="linear-gradient-4" gradientUnits="userSpaceOnUse" x1="32" x2="32" y1="48.287"
    y2="40.333"><stop offset="0" stop-color="#803f02"></stop>
    <stop offset=".174" stop-color="#6d3602"></stop>
    <stop offset=".515" stop-color="#4d2601"></stop>
    <stop offset=".802" stop-color="#3a1c01"></stop>
    <stop offset="1" stop-color="#331901"></stop></linearGradient><g xmlns="http://www.w3.org/2000/svg"
                                                                     id="_06-Slightly_Smiling_Face"
                                                                     data-name="06-Slightly Smiling Face"><path d="m32 63c-27.7 0-31.038-24-31-30v-2c-.038-6 3.3-30 31-30 27.7 0 31.038 24 31 30v2c.038 6-3.3 30-31 30z" fill="url(#linear-gradient)" data-original="url(#linear-gradient)" class=""></path>
    <path
        d="m46 24c0-2.761-1.343-5-3-5s-3 2.239-3 5c0 .171.02.333.03.5-.01.167-.03.329-.03.5 0 2.761 1.343 5 3 5s3-2.239 3-5c0-.171-.02-.333-.03-.5.01-.167.03-.329.03-.5z"
        fill="#eda406" data-original="#eda406"></path>
    <path
        d="m24 24c0-2.761-1.343-5-3-5s-3 2.239-3 5c0 .171.02.333.03.5-.01.167-.03.329-.03.5 0 2.761 1.343 5 3 5s3-2.239 3-5c0-.171-.02-.333-.03-.5.01-.167.03-.329.03-.5z"
        fill="#eda406" data-original="#eda406"></path>
    <path
        d="m46 25c0-2.761-1.343-5-3-5s-3 2.239-3 5c0 .171.02.333.03.5-.01.167-.03.329-.03.5 0 2.761 1.343 5 3 5s3-2.239 3-5c0-.171-.02-.333-.03-.5.01-.167.03-.329.03-.5z"
        fill="#ffd000" data-original="#ffd000"></path>
    <path
        d="m24 25c0-2.761-1.343-5-3-5s-3 2.239-3 5c0 .171.02.333.03.5-.01.167-.03.329-.03.5 0 2.761 1.343 5 3 5s3-2.239 3-5c0-.171-.02-.333-.03-.5.01-.167.03-.329.03-.5z"
        fill="#ffd000" data-original="#ffd000"></path>
    <ellipse cx="43" cy="25" fill="url(#linear-gradient-2)" rx="3" ry="5"
             data-original="url(#linear-gradient-2)"></ellipse>
    <ellipse cx="21" cy="25" fill="url(#linear-gradient-3)" rx="3" ry="5"
             data-original="url(#linear-gradient-3)"></ellipse>
    <path
        d="m43 23c1.451 0 2.661.718 2.94 3a8.343 8.343 0 0 0 .06-1c0-2.761-1.343-5-3-5s-3 2.239-3 5a8.343 8.343 0 0 0 .06 1c.279-2.282 1.489-3 2.94-3z"
        fill="#000000" data-original="#000000"></path>
    <path
        d="m21 23c1.451 0 2.661.718 2.94 3a8.343 8.343 0 0 0 .06-1c0-2.761-1.343-5-3-5s-3 2.239-3 5a8.343 8.343 0 0 0 .06 1c.279-2.282 1.489-3 2.94-3z"
        fill="#000000" data-original="#000000"></path>
    <path
        d="m32 46c-8 0-13-6-13-6a11.73 11.73 0 0 0 5.612 7.122 15.471 15.471 0 0 0 14.776 0 11.73 11.73 0 0 0 5.612-7.122s-5 6-13 6z"
        fill="#f9bf06" data-original="#f9bf06"></path>
    <path
        d="m32 45a19.617 19.617 0 0 1 -13-5s1.02 3.622 5.612 6.122a15.471 15.471 0 0 0 14.776 0c4.592-2.5 5.612-6.122 5.612-6.122a19.617 19.617 0 0 1 -13 5z"
        fill="#ed8d06" data-original="#ed8d06" class=""></path>
    <path
        d="m45 40s-1.02 3.622-5.612 6.123a15.477 15.477 0 0 1 -14.776 0c-4.592-2.501-5.612-6.123-5.612-6.123s5 6 13 6 13-6 13-6z"
        fill="url(#linear-gradient-4)" data-original="url(#linear-gradient-4)"></path></g></g></svg>
