<svg xmlns="http://www.w3.org/2000/svg" version="1.1" xmlns:xlink="http://www.w3.org/1999/xlink"
     xmlns:svgjs="http://svgjs.com/svgjs" width="512" height="512" x="0" y="0" viewBox="0 0 64 64"
     style="enable-background:new 0 0 512 512" xml:space="preserve" class=""><g><linearGradient xmlns="http://www.w3.org/2000/svg" id="linear-gradient" gradientUnits="userSpaceOnUse" x1="32" x2="32" y1="1.304" y2="63.304"><stop offset="0" stop-color="#ffe100"></stop><stop
    offset="1" stop-color="#f98900"></stop></linearGradient><linearGradient xmlns="http://www.w3.org/2000/svg"
                                                                            id="linear-gradient-2"
                                                                            gradientUnits="userSpaceOnUse" x1="43"
                                                                            x2="43" y1="27.725" y2="18.193"><stop offset=".005" stop-color="#414d4d"></stop>
    <stop offset=".206" stop-color="#3a4545"></stop>
    <stop offset=".522" stop-color="#272e2e"></stop>
    <stop offset=".914" stop-color="#080909"></stop>
    <stop offset="1"></stop></linearGradient><linearGradient xmlns="http://www.w3.org/2000/svg" id="linear-gradient-3"
                                                             x1="21" x2="21" xmlns:xlink="http://www.w3.org/1999/xlink"
                                                             xlink:href="#linear-gradient-2" y1="27.856"
                                                             y2="18.875"></linearGradient><linearGradient
    xmlns="http://www.w3.org/2000/svg" id="linear-gradient-4" gradientUnits="userSpaceOnUse" x1="32" x2="32" y1="53.575"
    y2="37.666"><stop offset="0" stop-color="#911625"></stop>
    <stop offset=".212" stop-color="#861422"></stop>
    <stop offset=".588" stop-color="#68101a"></stop>
    <stop offset="1" stop-color="#400a10"></stop></linearGradient><g xmlns="http://www.w3.org/2000/svg"
                                                                     id="_17-_Face_with_Open_Mouth"
                                                                     data-name="17- Face with Open Mouth"><path d="m32 63c-27.7 0-31.038-24-31-30v-2c-.038-6 3.3-30 31-30 27.7 0 31.038 24 31 30v2c.038 6-3.3 30-31 30z" fill="url(#linear-gradient)" data-original="url(#linear-gradient)" class=""></path>
    <path
        d="m46 22c0-2.761-1.343-5-3-5s-3 2.239-3 5c0 .171.02.333.03.5-.01.167-.03.329-.03.5 0 2.761 1.343 5 3 5s3-2.239 3-5c0-.171-.02-.333-.03-.5.01-.167.03-.329.03-.5z"
        fill="#eda406" data-original="#eda406"></path>
    <path
        d="m24 22c0-2.761-1.343-5-3-5s-3 2.239-3 5c0 .171.02.333.03.5-.01.167-.03.329-.03.5 0 2.761 1.343 5 3 5s3-2.239 3-5c0-.171-.02-.333-.03-.5.01-.167.03-.329.03-.5z"
        fill="#eda406" data-original="#eda406"></path>
    <path
        d="m46 23c0-2.761-1.343-5-3-5s-3 2.239-3 5c0 .171.02.333.03.5-.01.167-.03.329-.03.5 0 2.761 1.343 5 3 5s3-2.239 3-5c0-.171-.02-.333-.03-.5.01-.167.03-.329.03-.5z"
        fill="#ffd000" data-original="#ffd000"></path>
    <path
        d="m24 23c0-2.761-1.343-5-3-5s-3 2.239-3 5c0 .171.02.333.03.5-.01.167-.03.329-.03.5 0 2.761 1.343 5 3 5s3-2.239 3-5c0-.171-.02-.333-.03-.5.01-.167.03-.329.03-.5z"
        fill="#ffd000" data-original="#ffd000"></path>
    <ellipse cx="43" cy="23" fill="url(#linear-gradient-2)" rx="3" ry="5"
             data-original="url(#linear-gradient-2)"></ellipse>
    <ellipse cx="21" cy="23" fill="url(#linear-gradient-3)" rx="3" ry="5"
             data-original="url(#linear-gradient-3)"></ellipse>
    <path
        d="m43 21c1.451 0 2.661.718 2.94 3a8.343 8.343 0 0 0 .06-1c0-2.761-1.343-5-3-5s-3 2.239-3 5a8.343 8.343 0 0 0 .06 1c.279-2.282 1.489-3 2.94-3z"
        fill="#000000" data-original="#000000"></path>
    <path
        d="m21 21c1.451 0 2.661.718 2.94 3a8.343 8.343 0 0 0 .06-1c0-2.761-1.343-5-3-5s-3 2.239-3 5a8.343 8.343 0 0 0 .06 1c.279-2.282 1.489-3 2.94-3z"
        fill="#000000" data-original="#000000"></path>
    <path
        d="m38 45c0-4.418-2.686-8-6-8s-6 3.582-6 8c0 .169.011.334.019.5-.008.166-.019.331-.019.5 0 4.418 2.686 8 6 8s6-3.582 6-8c0-.169-.011-.334-.019-.5.008-.166.019-.331.019-.5z"
        fill="#ffd000" data-original="#ffd000"></path>
    <path
        d="m38 44c0-4.418-2.686-8-6-8s-6 3.582-6 8c0 .169.011.334.019.5-.008.166-.019.331-.019.5 0 4.418 2.686 8 6 8s6-3.582 6-8c0-.169-.011-.334-.019-.5.008-.166.019-.331.019-.5z"
        fill="#e38706" data-original="#e38706"></path>
    <ellipse cx="32" cy="45" fill="url(#linear-gradient-4)" rx="6" ry="8"
             data-original="url(#linear-gradient-4)"></ellipse></g></g></svg>
