<?xml version="1.0" encoding="UTF-8"?>
<!DOCTYPE svg PUBLIC "-//W3C//DTD SVG 1.1//EN" "http://www.w3.org/Graphics/SVG/1.1/DTD/svg11.dtd">
<!-- Creator: CorelDRAW -->
<svg xmlns="http://www.w3.org/2000/svg" xml:space="preserve" width="150mm" height="150mm" style="shape-rendering:geometricPrecision; text-rendering:geometricPrecision; image-rendering:optimizeQuality; fill-rule:evenodd; clip-rule:evenodd"
viewBox="0 0 150 150"
 xmlns:xlink="http://www.w3.org/1999/xlink">
 <defs>
  <style type="text/css">
   <![CDATA[
    .str6 {stroke:#FCFCFC;stroke-width:0.0762}
    .str5 {stroke:#FEFEFE;stroke-width:0.0762}
    .str4 {stroke:#363435;stroke-width:0.2}
    .str0 {stroke:#3A3333;stroke-width:0.2}
    .str1 {stroke:#EB3237;stroke-width:0.2}
    .str3 {stroke:#FCFCFC;stroke-width:0.2}
    .str2 {stroke:#FEFEFE;stroke-width:0.2}
    .fil2 {fill:#363435}
    .fil0 {fill:#3A3333}
    .fil9 {fill:#E53538}
    .fil6 {fill:#E83239}
    .fil10 {fill:#E83437}
    .fil7 {fill:#EA3337}
    .fil1 {fill:#EB3237}
    .fil8 {fill:#EE3136}
    .fil5 {fill:#FBFBFB}
    .fil4 {fill:#FCFCFC}
    .fil3 {fill:#FEFEFE}
   ]]>
  </style>
 </defs>
 <g id="Capa_x0020_1">
  <metadata id="CorelCorpID_0Corel-Layer"/>
  <path class="fil0 str0" d="M35.2424 18.9518l-3.0406 2.4668c-1.6713,1.3072 -4.097,3.8569 -5.4435,5.4551 -0.2686,0.3188 -0.3811,0.4024 -0.6268,0.7329 -0.4046,0.5438 -1.5272,1.7907 -1.8176,2.2687 -3.4386,4.7377 -5.6959,9.6839 -7.1352,14.7744 -2.1476,0.7103 -2.5662,0.7112 -4.053,2.0148 -1.504,1.3187 -2.7171,3.7274 -3.3034,5.8592 -0.4348,1.5808 -0.7653,0.6083 -1.3478,1.7464 -1.6338,3.1921 -1.7895,6.8244 -0.7025,10.1651 0.4078,1.2533 2.1907,6.5689 3.9399,4.0824 0.4465,-0.6348 1.813,-6.0245 2.0905,-7.0159 0.2496,1.334 0.1734,4.862 1.9381,4.2413l2.0822 -4.3321c0.058,1.449 -0.4386,5.0871 1.5175,5.0943 2.6948,0.0099 4.5853,-11.618 3.1749,-16.558 -0.2439,-0.8543 -0.559,-1.6185 -0.933,-2.4079 -0.3234,-0.6826 -1.1098,-1.5224 -0.7904,-2.2344 0.697,-1.5534 1.4921,-3.2329 2.2407,-4.7111 0.8018,-1.5835 1.5424,-3.0223 2.4005,-4.5285 0.9823,-1.7242 1.7271,-2.4101 3.0185,-3.8205 -0.1794,1.2849 -1.0412,3.5015 -1.4113,4.9282 -1.7599,6.7832 -1.8484,10.522 -1.5431,17.6861 0.1,2.3441 0.4183,3.2732 1.3403,5.1277 0.7418,1.4919 1.3068,3.0745 2.2165,4.3461 0.9819,1.3725 2.0966,2.129 3.2327,3.3267 1.2896,1.3594 1.3516,1.0645 3.27,3.2952 1.4643,1.7025 2.6507,5.4314 4.5466,8.4494 1.7831,2.8382 5.8029,7.1307 8.6193,9.3346 1.2479,0.9766 0.8797,1.1056 1.2636,3.6804 0.4022,2.6977 2.1486,11.9932 3.198,13.1792 0.2397,-0.588 0.5255,-0.1947 0.7152,0.2834l0.2476 0.8292 0.6181 -0.1231c-0.1192,-0.5453 0.0944,-0.4112 -0.8042,-0.8663l0.061 -0.867c-0.2697,0.1258 -0.0492,-0.2365 0.1923,0.3332 0.2517,0.5939 -0.0607,0.4931 0.5481,0.6137 -0.1179,-0.4861 -0.4614,-1.2425 -0.6646,-1.7682 -0.2426,-0.6275 -0.4308,-1.2257 -0.6058,-1.8506 -0.3696,-1.3195 -0.7046,-2.568 -0.9341,-3.9246l-0.2954 -1.4054c-0.275,-0.682 -0.5748,-3.0839 -0.7038,-3.9055 -0.3478,-2.2149 -0.6857,-2.7196 0.0738,-3.9823 2.4754,-4.115 4.5773,-7.8475 7.2928,-12.0005 0.4396,-0.6723 3.3636,-5.3167 4.0397,-5.719 0.0192,-0.2774 -0.0591,-0.0058 0.0921,-0.302 0.0515,-0.1008 0.1348,-0.2091 0.1968,-0.2958 0.1823,-0.2549 0.1913,-0.3603 0.4194,-0.4465 0.2879,-0.7644 1.5545,-2.2283 2.0986,-2.9847 0.3299,-0.4585 0.6469,-0.8653 1.0802,-1.4003 0.3617,-0.4466 0.8529,-1.1588 1.2306,-1.4188 0.0556,-0.2773 2.8879,-3.9565 3.2144,-4.0653 0.2518,-0.6778 10.7113,-13.4671 11.3935,-14.2109 3.1938,-3.482 5.2611,-5.3705 8.5378,-8.4194 2.2693,-2.1114 6.534,-6.2665 8.9548,-8.136 0.8127,-0.6276 1.5234,-1.2059 2.3128,-1.8962l2.3358 -2.0861 2.2567 1.305c0.8044,0.303 1.615,0.9351 2.3467,1.3396 1.2306,1.3326 0.9354,3.0486 0.403,4.9202 -0.9267,3.2574 -4.3988,9.4789 -6.1817,12.3859 -3.6782,5.9975 -6.0616,9.4884 -9.9015,15.0142 0.4091,0.8323 1.0265,1.5992 1.5177,2.3595 1.722,2.6648 2.8754,4.4152 4.4984,7.3761 2.017,3.68 3.4683,6.8622 5.0504,10.7973 1.5172,3.774 2.6581,8.0722 3.4896,12.3685 0.1975,1.0207 0.3022,2.4195 0.5448,3.4305 0.2242,0.9347 0.4722,1.4887 0.8195,3.0999 0.7056,3.2735 0.3018,3.8382 -0.4514,6.8553 0.2605,0.1768 0.561,0.2271 0.8978,0.2869 0.3635,0.0647 0.729,0.1407 1.0322,0.1919 1.2345,0.2087 3.0461,0.4164 4.3056,0.3934 0.7264,-0.0133 1.5764,-0.2373 2.1737,-0.1035l0.1827 -0.1091c0.0088,-0.0045 0.2547,-0.1226 0.2703,-0.1287 0.9795,-0.3859 1.4247,-0.1891 3.0941,-1.3764 0.9882,-0.7028 1.7519,-1.4378 2.4354,-2.4007l0.1212 -0.1631c0.0146,-0.0197 0.0401,-0.0576 0.0639,-0.0832 -0.135,-1.2038 1.4665,-4.9884 2.4451,-6.279 0.5877,-0.775 1.4958,-1.5404 2.4524,-2.0023 1.2619,-0.6093 2.1353,-0.4882 2.8375,-1.6643 -0.7883,0.0908 -0.133,0.5128 -1.1987,0.2599 -0.4333,-0.1029 -0.0544,-0.0684 -0.4433,-0.1645 -0.2572,-0.0636 -0.3339,-0.0155 -0.6578,-0.1026 -1.4812,0.0164 -3.6218,1.9721 -4.5043,3.2781 -0.9992,1.4787 -1.7272,3.5498 -2.2643,5.5411 -0.3225,1.1955 -0.8575,1.5665 -1.6215,2.2102 -0.5949,0.5011 -1.5638,1.0929 -2.5631,1.4012l-7.1297 -0.0054c0.9947,-4.6213 -0.7198,-7.5918 -0.577,-8.8412l-0.4883 -0.569 0.3693 -0.1014c-0.0583,-0.0629 -0.1051,-0.0344 -0.0909,-0.2299l0.138 -0.5608c-0.5492,-0.0082 -0.4532,-0.9987 -0.7038,-2.3304 -0.4722,-2.5094 -1.0187,-4.7517 -1.7261,-7.1844 -2.3198,-7.9786 -5.2583,-13.5038 -9.3047,-20.4052 -0.3981,-0.679 -2.1649,-3.2479 -2.2222,-3.6432 -0.4175,-0.3659 -0.6965,-0.9082 -0.9894,-1.4015l3.6371 -5.237c0.35,-0.4874 5.6453,-4.7198 7.2425,-4.9083 1.2227,-0.1443 1.1536,0.7736 1.3929,1.6303 0.7048,-1.5435 1.1282,-3.5063 -1.4056,-3.1205l-4.0004 1.5873c0.2078,-0.5394 5.1863,-8.4184 5.7275,-9.9914 0.3195,-0.1872 0.0798,-0.1864 0.4954,0.0517 0.1227,-0.8789 0.1276,0.1671 -0.1238,-0.5567 0.028,-0.022 0.0735,-0.0859 0.0882,-0.0601l0.3235 -0.2142c0.2842,-0.2482 0.1329,0.1043 0.2076,-0.3378 -0.2682,-0.5492 -0.2701,-0.1675 0.5512,-1.8071 1.1663,-2.3285 2.8651,-6.8421 1.5743,-9.3552 -0.3716,-0.7235 -0.8098,-1.0406 -1.497,-1.4785 -0.4532,-0.2887 -3.6791,-2.1601 -3.7263,-2.2225 -0.6567,-0.2257 -1.032,-0.5011 -1.6663,-0.8017 -3.4634,-1.6413 -7.391,-2.899 -11.1315,-3.853 -0.1734,-0.0442 -0.3274,-0.0719 -0.4937,-0.1337l-0.1899 -0.0844c-0.0231,-0.0104 -0.0761,-0.0078 -0.0927,-0.0509 -0.0167,-0.0435 -0.0632,-0.0331 -0.0924,-0.0535 -0.8772,0.0932 -6.1697,-1.5145 -7.1904,-1.9022 -2.0432,-0.7759 -4.26,-1.938 -6.2021,-2.9602 -4.0783,-2.1465 -9.9791,-3.3087 -15.3021,-2.7821 -2.7208,0.2692 -5.234,1.1068 -7.8244,1.3194 -2.9562,0.2426 -5.6624,-0.7219 -8.51,-0.306 -2.8024,0.4094 -7.1085,2.6978 -9.4903,4.2488l-2.6167 1.783z"/>
  <path class="fil1 str1" d="M52.5576 98.2581c0.2295,1.3566 0.5645,2.6051 0.9341,3.9246 0.175,0.6249 0.3632,1.2231 0.6058,1.8506 0.2032,0.5257 0.5467,1.2821 0.6646,1.7682l1.2421 1.5016c0.5042,-0.2716 2.9634,-2.9173 6.3175,-4.4312 2.9776,-1.3439 5.4366,-1.715 8.9513,-0.9029 5.8604,1.354 12.7744,7.55 22.1317,10.3137 2.4553,0.7252 1.844,0.4763 3.8778,-0.4565 1.2861,-0.5899 2.5959,-1.0778 4.1895,-1.2665 2.7628,-0.3273 3.9509,-0.0644 6.3622,-1.6881 0.7271,-0.4897 0.8676,-0.971 1.7317,-0.6173 2.9083,1.1904 5.4977,1.8608 9.1144,1.1467 0.1841,-0.3431 -0.18,-0.0486 0.2471,-0.3378l-0.7047 -0.7047c0.8007,-0.3 0.6693,-0.1879 0.8279,-0.533 -0.8226,-0.3326 -0.5659,-0.0009 -1.4176,-0.2214 -0.5973,-0.1338 -1.4473,0.0902 -2.1737,0.1035 -1.2595,0.023 -3.0711,-0.1847 -4.3056,-0.3934 -0.3032,-0.0512 -0.6687,-0.1272 -1.0322,-0.1919 -0.3368,-0.0598 -0.6373,-0.1101 -0.8978,-0.2869 0.7532,-3.0171 1.157,-3.5818 0.4514,-6.8553 -0.3473,-1.6112 -0.5953,-2.1652 -0.8195,-3.0999 -0.2426,-1.011 -0.3473,-2.4098 -0.5448,-3.4305 -0.8315,-4.2963 -1.9724,-8.5945 -3.4896,-12.3685 -1.5821,-3.9351 -3.0334,-7.1173 -5.0504,-10.7973 -1.623,-2.9609 -2.7764,-4.7113 -4.4984,-7.3761 -0.4912,-0.7603 -1.1086,-1.5272 -1.5177,-2.3595 3.8399,-5.5258 6.2233,-9.0167 9.9015,-15.0142 1.7829,-2.907 5.255,-9.1285 6.1817,-12.3859 0.5324,-1.8716 0.8276,-3.5876 -0.403,-4.9202 -0.1116,0.1207 -0.0609,0.0771 -0.2236,0.2014 -0.3087,0.2358 0.1832,-0.1116 -0.1557,0.1073 -0.0912,0.0588 -0.2219,0.1229 -0.3183,0.1752 -1.9454,1.0553 -2.0317,1.5756 -3.801,3.1303l-3.0482 2.8899c-0.3815,0.3457 -0.677,0.5882 -1.0457,0.9412 -2.6631,2.5501 -5.7088,5.2369 -8.186,7.6601 -4.3796,4.2844 -14.3888,15.4995 -18.5431,21.0759 -1.1041,1.4822 -2.2646,3.0103 -3.3123,4.611 -1.0194,1.5574 -2.0657,3.1643 -3.108,4.8174 -3.9988,6.3425 -8.1376,13.1479 -12.1135,19.5835 -0.5045,0.8166 -2.6463,4.3927 -3.0219,4.8369z"/>
  <path class="fil1 str1" d="M24.968 31.5685l-0.0248 0.7613c0.7848,-0.2799 0.3556,-0.5943 0.7366,-0.7989 0.2876,-0.1544 -0.3406,0.3225 0.2607,-0.1179l0.1392 -0.1245c0.0262,-0.0259 0.1531,-0.1851 0.1741,-0.2103l0.1468 -0.176c0.0239,0.0131 0.0581,0.0136 0.0671,0.0469l0.6892 0.3359c0.3307,-0.1015 0.5866,-0.4368 0.8954,-0.6396 1.2619,-0.8286 2.4425,-0.3238 1.7079,2.4471 -0.4723,1.781 -1.1108,3.5121 -1.5482,5.3844 -0.9527,4.0778 -1.5407,7.7557 -1.42,12.4227 0.0465,1.7972 0.0279,4.7649 0.473,6.3073 0.4381,1.5181 1.4301,3.2452 2.1374,4.8037 1.0154,2.2379 3.0436,3.8142 4.887,5.5049 0.6085,0.5581 1.0925,1.1759 1.7356,1.6854 0.1862,-0.7143 0.7983,-1.2873 1.1589,-1.7184 0.7636,-0.9128 0.3839,-1.2486 0.7662,-2.2095 1.7743,-4.4591 2.6954,-8.2696 5.2044,-12.6105 4.3754,-7.5702 7.4709,-10.6237 12.747,-16.9678 0.4827,-0.5804 0.9227,-1.0827 1.3708,-1.6041 0.7078,-0.8236 3.421,-3.4683 4.4248,-4.4817 1.5319,-1.5464 4.6013,-4.1046 6.1943,-5.6991 2.3991,-2.4014 7.7259,-6.0798 8.2207,-6.6376 0.1666,-0.1877 0.4358,-0.6029 0.6126,-0.872 0.2558,-0.3895 0.3604,-0.6037 0.6981,-0.813 -1.8306,-1.0967 -4.6962,-1.6442 -7.1442,-2.009 -5.2342,-0.7801 -7.7303,-0.0317 -12.3995,0.8318l-2.0389 0.2833c-4.1961,0.3598 -6.4454,-1.2707 -10.4373,0.2491 -8.4053,3.2002 -14.6238,9.0638 -19.9957,15.9027 -0.3033,0.3861 -0.3611,0.3912 -0.4392,0.7234z"/>
  <path class="fil2 str0" d="M54.7621 105.802c-0.6088,-0.1206 -0.2964,-0.0198 -0.5481,-0.6137 -0.2415,-0.5697 -0.462,-0.2074 -0.1923,-0.3332l-0.061 0.867c0.8986,0.4551 0.685,0.321 0.8042,0.8663l-0.6181 0.1231 -0.2476 -0.8292c-0.1897,-0.4781 -0.4755,-0.8714 -0.7152,-0.2834 0.4997,1.5555 1.1722,2.0165 1.4773,2.5984l-2.996 2.8433c-1.4629,1.4287 -4.3198,4.6362 -5.4224,6.0911 -4.1722,5.5052 -7.6571,11.696 -9.7137,18.922l1.4195 0.4023 2.6938 -7.2232c1.6094,-3.9391 4.9168,-9.0169 7.5749,-12.2312 0.7723,-0.9338 4.0057,-4.6619 4.814,-5.1244 1.035,0.8471 1.6383,1.3372 2.8346,2.0243 3.14,1.8037 6.8394,2.9373 9.683,4.5614 1.4537,0.8304 3.7909,2.835 5.5073,4.0241 6.2541,4.333 11.3058,6.7846 18.6362,9.972 1.6227,0.7056 12.0439,4.8779 13.8751,5.3456 0.5223,0.5461 3.0045,0.8099 2.8408,-0.8771 -0.183,-1.8865 -8.1058,-10.7244 -10.2067,-12.8355l-4.7552 -4.5085c-0.1963,-2.12 3.3913,-4.5983 4.8761,-5.5032 5.7023,-3.4753 7.8443,-1.1072 11.8997,-3.7099 1.4375,-0.9226 0.272,-0.733 3.607,0.2183 4.1336,1.1791 5.8604,0.4322 9.2032,-0.3183l0.0547 -0.2196c-0.3448,-0.0701 -0.4558,-0.069 -0.7666,-0.227 -1.0574,-0.5377 -0.2827,-0.1817 -1.3139,-0.3682l-0.3264 -0.0541c-3.6167,0.7141 -6.2061,0.0437 -9.1144,-1.1467 -0.8641,-0.3537 -1.0046,0.1276 -1.7317,0.6173 -2.4113,1.6237 -3.5994,1.3608 -6.3622,1.6881 -1.5936,0.1887 -2.9034,0.6766 -4.1895,1.2665 -2.0338,0.9328 -1.4225,1.1817 -3.8778,0.4565 -9.3573,-2.7637 -16.2713,-8.9597 -22.1317,-10.3137 -3.5147,-0.8121 -5.9737,-0.441 -8.9513,0.9029 -3.3541,1.5139 -5.8133,4.1596 -6.3175,4.4312l-1.2421 -1.5016z"/>
  <path class="fil3 str0" d="M107.83 52.0333c0.0095,0.3077 -0.1004,0.4058 0.3926,0.6202l0.7248 0.159c0.6686,0.1143 -0.3397,-0.2126 0.1956,0.0378 0.5002,0.234 -0.1665,-0.1812 0.1483,0.1223 0.0184,0.0177 -0.0061,0.4339 0.1102,0.1287 0.0084,-0.022 0.0373,0.0505 0.0596,0.0725l1.3632 -0.3729 -1.3068 2.548 -2.4576 0.2444 0.2543 4.8951 1.2747 -0.1691 -0.0374 1.1212c-5.4588,-0.3191 -3.3834,0.0934 -8.1731,-1.3366 1.7643,0.2561 3.4715,0.5669 5.2659,0.5118l-0.6436 -3.4498c-0.8049,0.4624 -0.8592,0.6314 -1.5478,1.0403 -2.7403,1.6269 -2.1309,0.4267 -3.3029,1.654 -0.4665,0.4885 -0.7462,0.7273 -1.0027,1.4385 -0.606,-0.1148 -1.0009,-0.115 -1.2096,-0.4177 -0.0265,-0.0155 -0.0731,-0.0195 -0.0892,-0.0229l-0.1492 -0.0307c-0.013,-0.0022 -0.0468,-0.0039 -0.06,-0.0062l-0.5118 -0.1485c0.0448,0.9901 0.1812,1.1012 -0.4954,1.3601l-0.0852 -0.083c0.0573,0.3953 1.8241,2.9642 2.2222,3.6432 4.0464,6.9014 6.9849,12.4266 9.3047,20.4052 0.7074,2.4327 1.2539,4.675 1.7261,7.1844 0.2506,1.3317 0.1546,2.3222 0.7038,2.3304 0.8232,-0.5438 9.8976,-1.3197 11.9533,-3.3467 1.0355,-1.021 2.2315,-3.6202 1.6118,-5.6943 -0.968,-3.2397 -0.6165,-2.8973 1.1298,-5.6267l-0.3064 -1.3632 -1.9085 0.2572 -0.5743 -1.2877c0.9028,-0.4075 2.7252,-1.8566 3.0193,-2.8747 0.2874,-0.9948 -1.2737,-4.0331 -2.5355,-5.2532l-1.1028 -0.9883 0.6106 -0.6111c0.2569,-0.2003 0.4725,-0.382 0.7585,-0.6033l4.386 -3.6491c-0.917,-1.005 -1.9325,-2.3554 -2.9938,-3.2271 -4.6246,-3.7986 -6.7205,-4.5992 -12.0791,-7.1174 0.9286,-4.4701 1.71,-7.4168 -1.5531,-11.4451 -0.4381,-0.5409 -1.9291,-1.8932 -2.768,-2.1736 -0.5412,1.573 -5.5197,9.452 -5.7275,9.9914l4.0004 -1.5873c2.5338,-0.3858 2.1104,1.577 1.4056,3.1205z"/>
  <path class="fil3 str0" d="M54.5341 111.167c1.7054,1.9609 9.2033,4.4279 12.3725,6.4296 1.3153,0.8307 3.8586,2.8809 5.4166,3.9939 6.7841,4.8464 17.3815,9.4607 25.3892,12.5058l6.9945 2.5578c-0.2243,-0.4508 -0.7163,-1.1081 -1.0042,-1.49 -0.3924,-0.5205 -0.7461,-1.0032 -1.1099,-1.4869l-1.7033 -2.1364 -5.477 -6.16 -3.9276 -3.7498c-0.608,-0.681 -3.13,-1.6382 -0.3624,-5.0776 1.1286,-1.4025 1.2746,-1.4077 2.6251,-2.5399 -0.5823,-0.4315 -1.8771,-0.6302 -2.659,-0.8978 -0.9259,-0.3169 -1.7134,-0.6459 -2.5908,-1.0004 -1.7394,-0.7026 -3.3781,-1.5897 -4.9373,-2.3693 -8.3881,-4.1939 -15.2057,-11.3753 -25.4482,-2.2833 -1.1836,1.0507 -1.8199,1.4056 -2.7742,2.6645 -0.5359,0.7071 -0.67,0.6529 -0.804,1.0398z"/>
  <path class="fil3 str2" d="M53.4608 82.7735c-0.1397,-0.3657 0.4061,0.4049 -0.1722,-0.116 -0.1457,-0.1312 -0.1901,-0.2068 -0.2621,-0.3277 -0.3495,0.1263 -0.5313,0.6934 -1.2424,0.7177 -2.5773,0.0883 -5.4353,-7.5688 -6.0336,-9.4087 -0.1738,-0.5345 -0.3441,-1.0685 -0.4623,-1.6351 -0.1543,-0.7394 -0.0131,-1.3282 -0.2637,-1.9701 -0.4756,-1.2186 -1.1809,-1.7863 -0.6266,-3.5004l6.0765 0.8067c0.2632,-3.6388 -1.971,-11.4469 0.6811,-11.1267 2.0022,0.2417 5.0937,4.0696 6.359,5.9366l0.3275 0.3793 0.6347 -0.3621c0.0137,-0.0072 0.0502,-0.0198 0.0623,-0.026 0.4559,-0.2337 -0.1041,-0.4068 0.5011,-0.6806 -0.0517,-0.555 -0.8518,-2.0852 -1.1511,-2.7986 -0.618,-1.4729 -3.0787,-8.1618 -2.49,-8.9617 3.1881,0.4811 2.7732,0.1361 4.3258,2.0601l2.9636 3.7145c0.6751,0.1039 0.1846,-0.2342 0.5847,-0.1279l0.1648 0.1343c0.0958,0.259 0.0548,0.248 -0.0012,0.7349 0.4962,-0.174 0.2647,-0.2752 0.584,-0.3095 0.1926,-0.0208 -0.4146,0.3528 0.4722,-0.0414 -0.051,-0.4039 -0.0019,-0.1682 -0.2406,-0.5838 -0.6575,-1.1447 -1.2909,-2.597 -1.7546,-3.8213 -0.5812,-1.5344 -1.1055,-3.1698 -1.5317,-4.7854 -0.6816,-2.5836 -1.0389,-2.7376 0.39,-4.7888 0.8843,-1.2692 1.9478,-2.4807 2.9804,-3.3339 1.7351,-1.4336 6.3334,-5.0986 8.1772,-1.4324 0.6607,1.3136 0.9347,3.7907 0.447,5.3432 -0.5176,1.6478 -1.8427,2.4555 -2.0103,4.4164 2.2495,-1.4408 2.102,-1.1383 3.8255,-2.846 0.8674,-0.8595 1.0179,-4.5062 3.904,-4.6365 0.8696,-0.0393 1.0305,0.2866 1.5609,0.4445l0.2735 -0.4149 0.2629 0.0825c0.0254,-0.3701 -0.0013,-0.4389 0.1849,-0.5836 -0.0729,-0.3478 -0.2354,-0.5127 -0.4994,-0.9601 -0.5748,-0.9739 -0.9216,-1.8224 -1.2967,-2.9099 -0.4917,-1.4253 -0.8519,-2.997 -1.1484,-4.5552 -0.595,-3.1268 -1.4455,-7.2579 2.3958,-7.6775 1.67,-0.1824 3.4362,0.3036 4.9008,0.7711 1.6151,0.5155 2.5926,0.8533 4.4127,1.1444 1.4222,0.2276 3.4103,0.5156 4.4603,1.2486 1.0965,0.7654 1.6345,2.586 1.4792,3.9931l-0.0248 -0.1244 0.2926 -0.056c0.265,-0.0144 0.483,0.0405 0.6948,0.148 0.5747,0.2914 -0.2885,0.0307 0.4339,0.2454 0.2428,-0.1058 2.6484,-2.1085 3.1189,-2.4853 1.2175,-0.9746 1.9462,-1.7215 3.0261,-2.8026 -0.9422,-0.6336 -3.4891,-1.4909 -4.7624,-1.9335 -3.9256,-1.3641 -7.1064,-1.8556 -10.4885,-2.8896l-4.9502 -1.7059c-0.7243,0.6115 -1.1698,1.2992 -1.8616,1.9426 -1.5693,1.4591 -2.5411,2.1739 -4.2115,3.4708 -2.1383,1.6604 -4.5112,3.3885 -6.3004,5.3383 -0.5755,0.6271 -1.2345,1.3299 -1.7923,2.0428 -0.591,0.7554 -1.1304,1.4383 -1.8006,2.1598 -0.7857,0.846 -2.9714,3.4721 -3.6075,4.0725l-7.3674 8.1043c-0.5696,0.6495 -1.2044,1.4065 -1.7424,2.0984 -1.6944,2.1792 -3.0215,4.756 -4.5226,7.111 -0.9493,1.4892 -2.0507,3.1724 -2.8961,4.9029 -1.6846,3.4486 -3.2032,6.9195 -4.8182,10.6616 -0.2555,0.5922 -2.3397,5.16 -2.3446,5.2647 -0.0327,0.702 2.4143,4.2039 2.8574,4.8322 0.5489,0.7783 1.1626,1.3996 1.7325,2.1041 0.5663,0.7001 1.3697,1.3816 1.9704,1.9952 1.5134,1.5458 2.4348,2.2547 4.1545,3.6696 0.395,-0.8476 1.0016,-1.7868 1.5205,-2.6589 0.258,-0.4337 0.4834,-0.8439 0.7813,-1.3268 0.2314,-0.3751 0.6471,-0.982 0.7027,-1.3873z"/>
  <path class="fil2 str2" d="M64.4929 55.8651c0.5583,0.3693 0.98,1.5938 2.3878,2.3607 1.2534,0.6829 2.8421,0.0432 3.3612,-0.7782l-0.9941 -7.6666c1.8484,-1.1461 4.7216,3.7033 8.3919,-1.2768l2.2406 -3.7036c0.0304,-0.0861 0.9148,-3.7993 0.7098,-4.3517 -0.0553,-0.1489 -0.1052,-0.1941 -0.1372,-0.2501 -0.2079,-0.3631 -0.0052,0.0948 -0.2122,-0.3577 -0.5304,-0.1579 -0.6913,-0.4838 -1.5609,-0.4445 -2.8861,0.1303 -3.0366,3.777 -3.904,4.6365 -1.7235,1.7077 -1.2232,1.4052 -3.4727,2.846 1.1425,-1.9609 1.3806,-2.791 1.6575,-4.4164 0.2733,-1.6041 0.2137,-4.0296 -0.447,-5.3432 -1.8438,-3.6662 -6.4421,-0.0012 -8.1772,1.4324 -1.0326,0.8532 -2.0961,2.0647 -2.9804,3.3339 -1.4289,2.0512 -1.0716,2.2052 -0.39,4.7888 0.4262,1.6156 0.9505,3.251 1.5317,4.7854 0.4637,1.2243 1.0971,2.6766 1.7546,3.8213 0.2387,0.4156 0.1896,0.1799 0.2406,0.5838z"/>
  <path class="fil2 str2" d="M53.0265 82.3298c1.3093,-3.1923 -0.7582,-6.222 -1.0442,-8.0748l3.1274 1.7933c1.0393,0.5656 0.9716,0.2997 1.1199,0.1764l-2.2593 -5.5211c3.9244,1.9597 5.7668,3.5904 6.2073,-0.0561 0.4792,-3.967 -1.471,-5.9718 -2.3356,-8.1184l-0.3275 -0.3793c-1.2653,-1.867 -4.3568,-5.6949 -6.359,-5.9366 -2.6521,-0.3202 -0.4179,7.4879 -0.6811,11.1267l-6.0765 -0.8067c-0.5543,1.7141 0.151,2.2818 0.6266,3.5004 0.2506,0.6419 0.1094,1.2307 0.2637,1.9701 0.1182,0.5666 0.2885,1.1006 0.4623,1.6351 0.5983,1.8399 3.4563,9.497 6.0336,9.4087 0.7111,-0.0243 0.8929,-0.5914 1.2424,-0.7177z"/>
  <path class="fil2 str2" d="M80.962 38.9251c0.4777,0.2341 0.5058,0.5097 0.8915,0.8685 1.1783,1.0961 3.0196,1.7185 3.7836,0.8579 1.7454,-1.9661 -0.9371,-4.372 1.5234,-7.1443 1.4232,-1.6034 0.9627,-2.7232 3.0168,-2.146 1.2302,0.3457 1.9595,0.1913 3.2304,0.1327 1.3885,-0.064 2.0542,-0.151 2.2586,-1.5143 0.1553,-1.4071 -0.3827,-3.2277 -1.4792,-3.9931 -1.05,-0.733 -3.0381,-1.021 -4.4603,-1.2486 -1.8201,-0.2911 -2.7976,-0.6289 -4.4127,-1.1444 -1.4646,-0.4675 -3.2308,-0.9535 -4.9008,-0.7711 -3.8413,0.4196 -2.9908,4.5507 -2.3958,7.6775 0.2965,1.5582 0.6567,3.1299 1.1484,4.5552 0.3751,1.0875 0.7219,1.936 1.2967,2.9099 0.264,0.4474 0.4265,0.6123 0.4994,0.9601z"/>
  <path class="fil4 str2" d="M95.6663 29.9796c-0.2044,1.3633 -0.8701,1.4503 -2.2586,1.5143 -1.2709,0.0586 -2.0002,0.213 -3.2304,-0.1327 -2.0541,-0.5772 -1.5936,0.5426 -3.0168,2.146 -2.4605,2.7723 0.222,5.1782 -1.5234,7.1443 -0.764,0.8606 -2.6053,0.2382 -3.7836,-0.8579 -0.3857,-0.3588 -0.4138,-0.6344 -0.8915,-0.8685 -0.1862,0.1447 -0.1595,0.2135 -0.1849,0.5836l-0.2629 -0.0825 -0.2735 0.4149c0.207,0.4525 0.0043,-0.0054 0.2122,0.3577 0.032,0.056 0.0819,0.1012 0.1372,0.2501 0.205,0.5524 -0.6794,4.2656 -0.7098,4.3517l-2.2406 3.7036c-3.6703,4.9801 -6.5435,0.1307 -8.3919,1.2768l0.9941 7.6666c-0.5191,0.8214 -2.1078,1.4611 -3.3612,0.7782 -1.4078,-0.7669 -1.8295,-1.9914 -2.3878,-2.3607 -0.8868,0.3942 -0.2796,0.0206 -0.4722,0.0414 -0.3193,0.0343 -0.0878,0.1355 -0.584,0.3095 0.056,-0.4869 0.097,-0.4759 0.0012,-0.7349l-0.1648 -0.1343c-0.4001,-0.1063 0.0904,0.2318 -0.5847,0.1279 0.2417,0.5949 0.7657,1.2557 1.1312,1.8399 4.796,7.666 -0.4294,9.5169 -3.6028,5.835 -0.3487,-0.4046 -0.7482,-1.3411 -1.1767,-1.6892 -0.6052,0.2738 -0.0452,0.4469 -0.5011,0.6806 -0.0121,0.0062 -0.0486,0.0188 -0.0623,0.026l-0.6347 0.3621c0.8646,2.1466 2.8148,4.1514 2.3356,8.1184 -0.4405,3.6465 -2.2829,2.0158 -6.2073,0.0561l2.2593 5.5211c-0.1483,0.1233 -0.0806,0.3892 -1.1199,-0.1764l-3.1274 -1.7933c0.286,1.8528 2.3535,4.8825 1.0442,8.0748 0.072,0.1209 0.1164,0.1965 0.2621,0.3277 0.5783,0.5209 0.0325,-0.2497 0.1722,0.116 0.1843,-0.1223 4.1754,-6.4846 4.7095,-7.3091 4.3151,-6.6617 10.4257,-14.3595 15.4848,-20.5456 2.8053,-3.4304 5.137,-6.4387 8.0569,-9.899 1.3029,-1.5441 3.0434,-3.1095 4.4407,-4.5923l7.7596 -7.2288c0.2867,-0.2555 0.4365,-0.4707 0.7318,-0.7468 0.2768,-0.2587 0.5216,-0.4268 0.8141,-0.6776 0.1765,-0.1514 1.4605,-1.3119 1.6046,-1.5817 -0.7224,-0.2147 0.1408,0.046 -0.4339,-0.2454 -0.2118,-0.1075 -0.4298,-0.1624 -0.6948,-0.148l-0.2926 0.056 0.0248 0.1244z"/>
  <path class="fil5 str1" d="M73.7885 62.0345c-0.0735,0.3948 -2.4296,3.6484 -2.544,3.7124 -0.2631,0.6302 -0.8869,1.4311 -1.3045,2.0395 -0.4349,0.6335 -0.8488,1.2539 -1.313,1.9083 -0.8264,1.1647 -1.759,2.5793 -2.7353,3.6402 -0.1687,0.2209 -0.2559,0.3525 -0.4668,0.5883 -0.0682,0.076 -0.1823,0.1997 -0.2374,0.2502 -0.2881,0.2638 -0.0771,0.1011 -0.2435,0.178 -0.2153,0.5289 -0.1494,0.2187 -0.4471,0.6307l-1.0309 2.3037c-2.4272,5.0409 -5.8661,8.6046 -8.2334,13.8056 -0.7902,1.7361 -1.0202,3.3738 -2.0078,4.5494 -0.2312,0.2752 -0.8687,0.8831 -0.9626,1.2119l0.2954 1.4054c0.3756,-0.4442 2.5174,-4.0203 3.0219,-4.8369 3.9759,-6.4356 8.1147,-13.241 12.1135,-19.5835 1.0423,-1.6531 2.0886,-3.26 3.108,-4.8174 1.0477,-1.6007 2.2082,-3.1288 3.3123,-4.611 4.1543,-5.5764 14.1635,-16.7915 18.5431,-21.0759 2.4772,-2.4232 5.5229,-5.11 8.186,-7.6601 0.3687,-0.353 0.6642,-0.5955 1.0457,-0.9412l3.0482 -2.8899c1.7693,-1.5547 1.8556,-2.075 3.801,-3.1303 0.0964,-0.0523 0.2271,-0.1164 0.3183,-0.1752 0.3389,-0.2189 -0.153,0.1285 0.1557,-0.1073 0.1627,-0.1243 0.112,-0.0807 0.2236,-0.2014 -0.7317,-0.4045 -1.5423,-1.0366 -2.3467,-1.3396 -0.8374,0.5473 -1.4853,1.2955 -2.2961,1.9583 -0.7604,0.6216 -1.6052,1.342 -2.3292,2.009 -1.7844,1.6437 -2.6604,2.4665 -4.354,4.1834 -2.5368,2.5716 -6.1961,6.0918 -8.5009,8.5922 -2.5596,2.7767 -5.7614,5.972 -8.1713,8.9146l-5.7699 7.1041 -1.3692 1.845c-0.2409,0.3361 -0.2146,0.3236 -0.5091,0.5395z"/>
  <path class="fil1 str1" d="M13.7097 48.116c-1.1685,1.2975 -1.8338,2.7597 -2.394,4.5331 -0.4313,1.3658 -0.0836,1.3325 -1.3128,2.1598 -1.0752,0.7236 -2.1075,6.4881 -1.0027,8.5439 0.4048,0.2754 0.4298,0.307 0.5614,0.7262 0.1659,0.5285 -0.1368,0.2163 0.7359,0.9241 0,-1.6736 -0.1412,-1.0002 -0.2986,-1.4172l-0.0717 -0.3154 0.2269 -0.1824c0.2956,-0.2924 0.3977,-0.5217 0.6395,-0.8611 0.1774,0.4436 -0.7108,1.1883 0,2.6524 0.6368,-0.2497 0.6076,-0.1383 0.2709,-1.3608 0.0217,-0.0279 0.0548,-0.1041 0.0649,-0.0837 0.0099,0.0202 0.0485,-0.0637 0.0618,-0.0842 0.4586,-0.7047 0.2179,-0.7086 0.768,-0.9454 0.6274,-0.566 0.4827,-4.4456 2.1687,-4.2378 0.8637,0.1064 0.9289,1.3323 1.0395,2.2117l0.3979 2.9406c0.0267,-0.244 0.9396,-2.6847 1.1275,-3.1855 0.2916,-0.7775 0.8161,-2.847 1.5778,-3.0089l1.1935 7.4813c1.396,-1.5988 2.9385,-10.4124 1.5021,-14.7039 -0.2642,-0.7894 -1.4344,-3.4411 -1.8904,-3.8353 -0.0734,0.0289 -0.4763,-0.1977 -0.8834,-0.1274 -1.2063,0.2081 -3.3766,0.9475 -4.4827,2.1759z"/>
  <path class="fil1 str1" d="M71.2968 60.332l0.5614 0.2157c-0.0201,0.0169 -0.038,0.0296 -0.0444,0.0651 -0.01,0.0548 -0.076,0.1133 -0.0946,0.1378 -0.2471,0.3262 -0.2943,0.2763 -0.8507,0.5403 0.3154,0.0928 0.4672,-0.0679 0.5381,-0.1065 0.5688,-0.3091 0.3492,-0.3102 0.859,-0.1268l0.5835 0.2339c-0.01,0.0507 -0.0421,0.0582 -0.0562,0.1447 -0.0311,0.1905 -0.1864,0.1939 -0.3141,1.0917 1.4665,-0.7676 0.0028,-1.6537 -0.6194,-2.104l0.5184 -1.0796 0.4713 -0.4043 -0.2779 0.742c0.6438,0.5327 0.0838,0.5461 1.145,1.2376l-0.4018 0.8663c0.2411,0.1891 0.3133,0.0425 0.5256,-0.1231 -0.1408,0.2369 -0.0592,0.1484 -0.0515,0.3717 0.2945,-0.2159 0.2682,-0.2034 0.5091,-0.5395l1.3692 -1.845 5.7699 -7.1041c2.4099,-2.9426 5.6117,-6.1379 8.1713,-8.9146 2.3048,-2.5004 5.9641,-6.0206 8.5009,-8.5922 1.6936,-1.7169 2.5696,-2.5397 4.354,-4.1834 0.724,-0.667 1.5688,-1.3874 2.3292,-2.009 0.8108,-0.6628 1.4587,-1.411 2.2961,-1.9583l-2.2567 -1.305 -2.3358 2.0861c-0.7894,0.6903 -1.5001,1.2686 -2.3128,1.8962 -2.4208,1.8695 -6.6855,6.0246 -8.9548,8.136 -3.2767,3.0489 -5.344,4.9374 -8.5378,8.4194 -0.6822,0.7438 -11.1417,13.5331 -11.3935,14.2109z"/>
  <path class="fil4 str3" d="M41.1483 32.4596l-8.2862 3.2125c-0.3743,3.7853 -0.481,11.0922 -0.6546,15.4703 -0.0788,1.9897 -0.3584,1.3564 1.8533,3.6186l0.6961 -14.9527 8.7873 -5.375 -0.5928 -10.0236c0.8337,-0.5305 5.3739,-2.072 6.7781,-2.9283l5.4744 -4.0855c-3.0305,-0.1456 -12.8873,3.4453 -15.3365,4.9981 -0.7477,0.474 -0.4681,2.7181 -0.388,3.5389 0.3667,3.7575 1.2253,4.5145 1.6689,6.5267z"/>
  <path class="fil1 str1" d="M131.536 93.3973c-0.7022,1.1761 -1.5756,1.055 -2.8375,1.6643 -0.9566,0.4619 -1.8647,1.2273 -2.4524,2.0023 -0.9786,1.2906 -2.5801,5.0752 -2.4451,6.279 0.1239,0.867 -0.6127,0.622 0.3522,1.3627l0.3864 0.4167c-0.1614,0.0756 -0.1373,0.084 -0.2762,0.0868 -0.3026,0.0063 -0.2039,0.0277 -0.3304,-0.0322l-0.4216 -0.4448c-0.0172,0.0245 -0.0444,0.0327 -0.0525,0.073 -0.008,0.0402 -0.0413,0.0586 -0.0526,0.0725l-1.0097 0.9677c0.2138,0.1702 0.5191,0.2197 0.7765,0.0974 0.0289,-0.0137 0.0572,-0.0339 0.0843,-0.0512 0.0339,-0.0216 0.1229,-0.0986 0.1532,-0.1267l0.4879 -0.3802 -0.3871 0.8314c0.1016,0.043 0.2859,0.1465 0.3393,0.1568l0.2337 -0.0054c0.0211,-0.0073 0.0534,-0.0273 0.0744,-0.0382 0.4344,-0.2248 0.078,-0.4474 0.8397,-0.2866 2.1984,0.0058 0.8516,0.3921 2.3929,0.7624 1.0008,0.2406 1.8439,0.4305 2.9082,0.1324 2.3764,-0.6657 2.2448,-2.1164 4.6122,-2.1861 0.6155,-0.0182 1.5065,-0.979 1.9444,-1.4151 2.117,-2.1085 2.6629,-3.3051 4.3738,-5.8982 -0.7401,0.0789 -2.1698,0.8434 -3.0281,1.1705l-3.2184 0.3658c-0.2467,-1.3438 0.8694,-2.1349 1.5493,-2.7151 0.3452,-0.2495 0.3521,-0.1567 0.5188,-0.5822 -0.8122,0.1572 -4.4094,1.9987 -4.4602,0.6756 -0.7301,-0.67 0.3514,-2.5464 0.848,-3.1437 0.0144,-0.0173 0.0579,-0.0276 0.0686,-0.0735 0.0108,-0.0464 0.0457,-0.05 0.0705,-0.0731 0.013,-0.5561 0.5789,-0.9856 0.6711,-1.5367 -0.8009,0.5236 -1.353,0.84 -2.0687,1.4444 -0.2446,0.2066 -0.4104,0.3489 -0.6449,0.4273z"/>
  <path class="fil1 str1" d="M37.1492 70.5382l1.7617 3.1265c0.4202,-0.5115 3.5556,-7.9585 4.0693,-9.1694 1.2831,-3.0245 2.8117,-6.128 4.5123,-8.8686 1.4238,-2.2944 3.682,-6.1 5.0967,-8.1485 1.2283,-1.7785 5.8937,-6.6965 6.1647,-7.2811 -0.3371,-0.1078 -0.5512,-0.3022 -0.5684,-0.3626 -0.0136,-0.0481 -0.0483,-0.054 -0.0756,-0.0777l-0.7426 0.4939 0.2465 -0.9895 -0.3941 -0.4669c-0.8764,-0.9841 -0.6442,-0.2405 -0.9504,-0.7707 0.8404,-0.8351 0.7772,-0.5167 1.0968,-0.8664l-0.2722 -0.4208c-0.0116,-0.0608 -0.0395,-0.0734 -0.0554,-0.1118 -1.6887,0.8473 -5.0019,5.3343 -6.2866,7.2919 -1.7661,2.6912 -3.4111,5.5195 -5.181,8.186 -3.224,4.8572 -5.1498,10.6504 -7.4521,16.0685 -0.2908,0.6843 -0.8108,1.7236 -0.9696,2.3672z"/>
  <path class="fil2 str0" d="M108.152 40.5087c0.8389,0.2804 2.3299,1.6327 2.768,2.1736 3.2631,4.0283 2.4817,6.975 1.5531,11.4451 5.3586,2.5182 7.4545,3.3188 12.0791,7.1174 1.0613,0.8717 2.0768,2.2221 2.9938,3.2271l-4.386 3.6491c-0.286,0.2213 -0.5016,0.403 -0.7585,0.6033l-0.6106 0.6111 1.1028 0.9883c1.2618,1.2201 2.8229,4.2584 2.5355,5.2532 -0.2941,1.0181 -2.1165,2.4672 -3.0193,2.8747l0.5743 1.2877 1.9085 -0.2572 0.3064 1.3632c-1.7463,2.7294 -2.0978,2.387 -1.1298,5.6267 0.6197,2.0741 -0.5763,4.6733 -1.6118,5.6943 -2.0557,2.027 -11.1301,2.8029 -11.9533,3.3467l-0.138 0.5608c-0.0142,0.1955 0.0326,0.167 0.0909,0.2299l-0.3693 0.1014 0.4883 0.569c2.2472,-0.5042 4.5073,-0.8916 6.7526,-1.3932 2.5042,-0.5595 4.2904,-0.7745 5.9493,-2.2193 1.1486,-1.0003 2.5068,-3.416 2.4887,-5.7101 -0.0102,-1.2763 -0.6703,-2.2404 -0.7508,-3.3569l1.6126 -2.5287 -1.2166 -3.6434c2.4781,-3.2742 1.9719,-3.0987 -1.3485,-8.7871 0.3279,-0.4913 4.3342,-3.5133 4.8489,-4.1383 0.7435,-0.9027 -0.3283,-1.8903 -1.1317,-2.7275 -0.38,-0.3961 -0.6649,-0.7719 -1.0488,-1.1791 -3.2834,-3.4816 -8.2295,-5.8921 -12.4983,-8.0442 0.696,-4.5034 1.05,-7.798 -2.2921,-11.5806 -0.5653,-0.6398 -1.8534,-1.8984 -2.7985,-2.2741 -0.0747,0.4421 0.0766,0.0896 -0.2076,0.3378l-0.3235 0.2142c-0.0147,-0.0258 -0.0602,0.0381 -0.0882,0.0601 0.2514,0.7238 0.2465,-0.3222 0.1238,0.5567 -0.4156,-0.2381 -0.1759,-0.2389 -0.4954,-0.0517z"/>
  <path class="fil1 str1" d="M52.2622 96.8527c0.0939,-0.3288 0.7314,-0.9367 0.9626,-1.2119 0.9876,-1.1756 1.2176,-2.8133 2.0078,-4.5494 2.3673,-5.201 5.8062,-8.7647 8.2334,-13.8056l1.0309 -2.3037c0.2977,-0.412 0.2318,-0.1018 0.4471,-0.6307 -0.3615,-0.2297 -0.1897,-0.1679 -0.1909,-0.6837 -0.7426,0.0124 -0.7809,0.1003 -1.0113,-0.1872 -0.0199,-0.0248 -0.0375,-0.058 -0.0553,-0.0839l-0.5684 -0.9901c-0.0252,-0.0291 -0.1717,-0.0971 -0.1894,-0.1546 -0.0188,-0.0612 -0.0748,-0.0458 -0.1113,-0.0699l0.3367 -0.6301 -0.1894 -0.3065c-0.6761,0.4023 -3.6001,5.0467 -4.0397,5.719 -2.7155,4.153 -4.8174,7.8855 -7.2928,12.0005 -0.7595,1.2627 -0.4216,1.7674 -0.0738,3.9823 0.129,0.8216 0.4288,3.2235 0.7038,3.9055z"/>
  <path class="fil5 str2" d="M36.025 69.2009c0.1776,0.3316 0.8571,1.0616 1.1242,1.3373 0.1588,-0.6436 0.6788,-1.6829 0.9696,-2.3672 2.3023,-5.4181 4.2281,-11.2113 7.4521,-16.0685 1.7699,-2.6665 3.4149,-5.4948 5.181,-8.186 1.2847,-1.9576 4.5979,-6.4446 6.2866,-7.2919 0.0736,-0.2059 0.0436,-0.166 0.4318,-0.4742 0.2215,-0.1759 0.3215,-0.2416 0.4922,-0.3773 0.4439,-0.353 0.5321,-0.5162 0.8045,-0.888 2.8158,-3.1318 3.8582,-4.3883 7.075,-7.5759 2.2274,-2.2073 4.0723,-3.3992 6.509,-5.623 1.7782,-1.6228 2.1391,-1.8054 3.9964,-3.1882 0.5504,-0.4099 0.8711,-0.6638 1.2645,-1.2133 0.7097,-0.9914 1.0058,-0.4659 1.3078,-0.9953l-1.4969 -0.7022c-0.3377,0.2093 -0.4423,0.4235 -0.6981,0.813 -0.1768,0.2691 -0.446,0.6843 -0.6126,0.872 -0.4948,0.5578 -5.8216,4.2362 -8.2207,6.6376 -1.593,1.5945 -4.6624,4.1527 -6.1943,5.6991 -1.0038,1.0134 -3.717,3.6581 -4.4248,4.4817 -0.4481,0.5214 -0.8881,1.0237 -1.3708,1.6041 -5.2761,6.3441 -8.3716,9.3976 -12.747,16.9678 -2.509,4.3409 -3.4301,8.1514 -5.2044,12.6105 -0.3823,0.9609 -0.0026,1.2967 -0.7662,2.2095 -0.3606,0.4311 -0.9727,1.0041 -1.1589,1.7184z"/>
  <path class="fil1 str1" d="M58.767 34.8851l0.4576 0.7863c0.4715,-0.7235 0.061,-0.2612 0.7347,-0.2723 0.2575,-0.0043 0.436,0.0945 0.7793,-0.1939 0.722,-0.6066 -0.5231,-0.0662 1.1279,-1.0025l-0.3276 0.9743 0.4108 0.4335 0.3722 -1.0517c0.9017,-0.3189 0.1956,0.3192 1.0927,-0.4494 0.2385,-0.2044 0.1304,-0.1356 0.6768,-0.282l0.0885 0.3971c0.3294,-0.1977 0.3531,-0.2034 0.6343,-0.5305 0.2029,-0.236 0.3442,-0.4074 0.5064,-0.5938 2.7451,-3.1555 3.6473,-4.6712 7.1115,-7.6204l9.0675 -7.7533c-0.5309,-0.5813 -1.9175,-0.9934 -2.5799,-1.4371 -0.302,0.5294 -0.5981,0.0039 -1.3078,0.9953 -0.3934,0.5495 -0.7141,0.8034 -1.2645,1.2133 -1.8573,1.3828 -2.2182,1.5654 -3.9964,3.1882 -2.4367,2.2238 -4.2816,3.4157 -6.509,5.623 -3.2168,3.1876 -4.2592,4.4441 -7.075,7.5759z"/>
  <path class="fil2 str2" d="M59.0401 61.4604c0.4285,0.3481 0.828,1.2846 1.1767,1.6892 3.1734,3.6819 8.3988,1.831 3.6028,-5.835 -0.3655,-0.5842 -0.8895,-1.245 -1.1312,-1.8399l-2.9636 -3.7145c-1.5526,-1.924 -1.1377,-1.579 -4.3258,-2.0601 -0.5887,0.7999 1.872,7.4888 2.49,8.9617 0.2993,0.7134 1.0994,2.2436 1.1511,2.7986z"/>
  <path class="fil3 str2" d="M96.5472 61.9498l0.0852 0.083c0.6766,-0.2589 0.5402,-0.37 0.4954,-1.3601l0.5118 0.1485c0.0132,0.0023 0.047,0.004 0.06,0.0062l0.1492 0.0307c0.0161,0.0034 0.0627,0.0074 0.0892,0.0229 0.3914,-0.7449 1.6321,-2.1217 2.151,-2.5688 4.6274,-3.9874 8.0001,-4.281 9.3724,-5.1384 -0.0223,-0.022 -0.0512,-0.0945 -0.0596,-0.0725 -0.1163,0.3052 -0.0918,-0.111 -0.1102,-0.1287 -0.3148,-0.3035 0.3519,0.1117 -0.1483,-0.1223 -0.5353,-0.2504 0.473,0.0765 -0.1956,-0.0378l-0.7248 -0.159c-0.493,-0.2144 -0.3831,-0.3125 -0.3926,-0.6202 -0.2393,-0.8567 -0.1702,-1.7746 -1.3929,-1.6303 -1.5972,0.1885 -6.8925,4.4209 -7.2425,4.9083l-3.6371 5.237c0.2929,0.4933 0.5719,1.0356 0.9894,1.4015z"/>
  <path class="fil2 str4" d="M109.461 53.1738c-1.3723,0.8574 -4.745,1.151 -9.3724,5.1384 -0.5189,0.4471 -1.7596,1.8239 -2.151,2.5688 0.2087,0.3027 0.6036,0.3029 1.2096,0.4177 0.2565,-0.7112 0.5362,-0.95 1.0027,-1.4385 1.172,-1.2273 0.5626,-0.0271 3.3029,-1.654 0.6886,-0.4089 0.7429,-0.5779 1.5478,-1.0403l0.6436 3.4498c-1.7944,0.0551 -3.5016,-0.2557 -5.2659,-0.5118 4.7897,1.43 2.7143,1.0175 8.1731,1.3366l0.0374 -1.1212 -1.2747 0.1691 -0.2543 -4.8951 2.4576 -0.2444 1.3068 -2.548 -1.3632 0.3729z"/>
  <path class="fil6 str1" d="M24.968 31.5685c-0.2477,0.1843 -0.4086,0.4207 -0.6094,0.7057 -1.8785,2.6658 -3.9713,6.2651 -5.0313,9.3279 -0.9544,1.6761 -1.7205,3.4019 -1.0118,4.4612 0.4307,0.0329 0.461,0.131 0.7603,0.0159 -0.1136,-1.1586 5.1407,-11.2661 6.7641,-13.1881 0.5079,-0.6014 1.0029,-0.9968 1.317,-1.6061l-0.6892 -0.3359c-0.009,-0.0333 -0.0432,-0.0338 -0.0671,-0.0469l-0.1468 0.176c-0.021,0.0252 -0.1479,0.1844 -0.1741,0.2103l-0.1392 0.1245c-0.6013,0.4404 0.0269,-0.0365 -0.2607,0.1179 -0.381,0.2046 0.0482,0.519 -0.7366,0.7989l0.0248 -0.7613z"/>
  <path class="fil7 str1" d="M63.673 70.2011c0.0273,-0.01 0.3195,-0.1088 0.383,-0.1237 -0.2372,0.4953 -0.5045,0.8112 -0.6193,1.3614 1.4765,-0.9698 0.3107,-0.2745 1.1751,-1.0431 0.5524,-0.491 0.2634,-0.2287 0.4862,-0.9767 0.2888,-0.9694 1.0736,-0.3771 1.7279,-0.7731 0.3944,-0.4785 0.215,-0.9584 0.2028,-1.6613 0.5984,0.3457 1.0141,0.4056 0.586,1.1643 -0.1964,0.3482 -0.3234,0.2184 -0.2326,0.8393 0.5885,-0.4883 0.2426,-0.1864 0.5038,-0.7413 0.1861,-0.3955 0.1274,-0.0102 0.2664,-0.5652 0.0599,-0.2394 0.0239,-0.3132 0.1151,-0.5734l0.6722 0.0646 -0.4245 0.9249c0.6588,0.3123 0.6106,0.0604 0.6715,-0.0006 -0.3385,0.6428 -0.5289,0.4873 -0.5489,1.0089l-0.6838 -0.142 0.3123 0.8658 -0.3728 -0.0785c-0.0033,-0.0019 -0.2738,-0.2989 -0.6175,-0.4893 -1.1408,0.3412 -0.5954,0.2498 -1.6872,0.2498 -0.1714,2.5409 -0.0691,1.7247 0.9434,1.6806 -0.6007,0.7708 -0.637,0.3208 -0.7481,0.9186 -0.0524,0.2818 0.0089,0.157 -0.0832,0.4688 -0.1664,0.5632 -0.029,-0.3503 -0.1584,0.5915l0.2483 0.119c0.014,-0.0301 0.0696,0.0255 0.101,0.0445 0.9763,-1.0609 1.9089,-2.4755 2.7353,-3.6402 0.4642,-0.6544 0.8781,-1.2748 1.313,-1.9083 0.4176,-0.6084 1.0414,-1.4093 1.3045,-2.0395 -0.132,-0.9758 0.0438,-0.1455 -0.376,-0.495 0.0006,0.3326 0.0385,0.3348 -0.1251,0.6176 -0.4247,-0.7854 -0.4418,-0.602 -0.7425,-0.5868 0.1807,0.6957 0.2989,0.3439 0.456,0.969 0.0585,0.2328 0.0388,0.2121 0.0388,0.4841 -0.6771,-0.2741 -0.5955,-0.1694 -0.79,-0.4892 -0.1886,-0.31 -0.1197,-0.4478 -0.2387,-0.7728l-0.7048 -1.212c-0.3517,0.7333 -0.1371,0.2862 -0.2588,0.7417 -0.2046,0.7662 0.3762,0.3526 -0.4843,0.4947l0.0633 -1.1009c-0.3777,0.26 -0.8689,0.9722 -1.2306,1.4188 -0.4333,0.535 -0.7503,0.9418 -1.0802,1.4003 -0.5441,0.7564 -1.8107,2.2203 -2.0986,2.9847z"/>
  <path class="fil4 str5" d="M68.6733 40.3628c-1.3031,0.4342 -2.1128,1.7483 -2.7826,2.9587 -0.5499,0.9935 -0.2813,1.0963 0.1662,1.9843 0.3123,0.6199 0.7613,1.3513 1.3292,1.5235 2.2065,0.6691 4.3993,-7.5035 1.2872,-6.4665z"/>
  <path class="fil1 str1" d="M71.2968 60.332c-0.3265,0.1088 -3.1588,3.788 -3.2144,4.0653l-0.0633 1.1009c0.8605,-0.1421 0.2797,0.2715 0.4843,-0.4947 0.1217,-0.4555 -0.0929,-0.0084 0.2588,-0.7417l0.7048 1.212c0.119,0.325 0.0501,0.4628 0.2387,0.7728 0.1945,0.3198 0.1129,0.2151 0.79,0.4892 0,-0.272 0.0197,-0.2513 -0.0388,-0.4841 -0.1571,-0.6251 -0.2753,-0.2733 -0.456,-0.969 0.3007,-0.0152 0.3178,-0.1986 0.7425,0.5868 0.1636,-0.2828 0.1257,-0.285 0.1251,-0.6176 0.4198,0.3495 0.244,-0.4808 0.376,0.495 0.1144,-0.064 2.4705,-3.3176 2.544,-3.7124 -0.0077,-0.2233 -0.0893,-0.1348 0.0515,-0.3717 -0.2123,0.1656 -0.2845,0.3122 -0.5256,0.1231l0.4018 -0.8663c-1.0612,-0.6915 -0.5012,-0.7049 -1.145,-1.2376l0.2779 -0.742 -0.4713 0.4043 -0.5184 1.0796c0.6222,0.4503 2.0859,1.3364 0.6194,2.104 0.1277,-0.8978 0.283,-0.9012 0.3141,-1.0917 0.0141,-0.0865 0.0462,-0.094 0.0562,-0.1447l-0.5835 -0.2339c-0.5098,-0.1834 -0.2902,-0.1823 -0.859,0.1268 -0.0709,0.0386 -0.2227,0.1993 -0.5381,0.1065 0.5564,-0.264 0.6036,-0.2141 0.8507,-0.5403 0.0186,-0.0245 0.0846,-0.083 0.0946,-0.1378 0.0064,-0.0355 0.0243,-0.0482 0.0444,-0.0651l-0.5614 -0.2157z"/>
  <path class="fil8 str1" d="M58.767 34.8851c-0.2724,0.3718 -0.3606,0.535 -0.8045,0.888 -0.1707,0.1357 -0.2707,0.2014 -0.4922,0.3773 -0.3882,0.3082 -0.3582,0.2683 -0.4318,0.4742 0.0159,0.0384 0.0438,0.051 0.0554,0.1118l0.2722 0.4208c-0.3196,0.3497 -0.2564,0.0313 -1.0968,0.8664 0.3062,0.5302 0.074,-0.2134 0.9504,0.7707l0.3941 0.4669 -0.2465 0.9895 0.7426 -0.4939c0.0273,0.0237 0.062,0.0296 0.0756,0.0777 0.0172,0.0604 0.2313,0.2548 0.5684,0.3626 0.2654,-0.0923 0.9532,-0.8316 1.0486,-1.1383 -0.1227,-0.3724 -0.1945,-0.4775 -0.2069,-0.7877l0.5907 -0.3822c0.4994,-0.4363 0.0198,-0.3061 0.8744,-0.9943 0.392,-0.3157 0.2664,0.1571 0.3527,-0.6037 -0.5277,-0.2894 -1.2304,-0.2108 -1.4358,0.4125 -0.1216,0.3688 0.0316,0.7751 -0.269,0.8457 -0.3473,0.0816 0.1014,0.0808 -0.1903,-0.0493l-0.5407 -0.3426 0.3475 -0.3119c0.5388,-0.5098 0.1542,0.0787 0.2705,-0.3069 -1.1857,-0.3665 -0.3908,0.3321 -1.1148,-0.1205 0.1109,-0.2725 0.1001,-0.2743 0.3213,-0.4977 0.8177,0.0766 0.5666,0.0932 1.0675,-0.0565 0.5092,-0.1522 0.4051,-0.0809 0.9653,-0.0846l0.291 -0.3282c0.1417,-0.1406 0.0214,-0.0766 0.2045,-0.1507l0.5885 0.7431 -0.3282 0.6189 0.4822 0.2298c0.0201,-0.5698 2.1242,-2.1853 2.107,-2.6675l-0.0885 -0.3971c-0.5464,0.1464 -0.4383,0.0776 -0.6768,0.282 -0.8971,0.7686 -0.191,0.1305 -1.0927,0.4494l-0.3722 1.0517 -0.4108 -0.4335 0.3276 -0.9743c-1.651,0.9363 -0.4059,0.3959 -1.1279,1.0025 -0.3433,0.2884 -0.5218,0.1896 -0.7793,0.1939 -0.6737,0.0111 -0.2632,-0.4512 -0.7347,0.2723l-0.4576 -0.7863z"/>
  <path class="fil2 str0" d="M129.236 93.3901c0.3239,0.0871 0.4006,0.039 0.6578,0.1026 0.3889,0.0961 0.01,0.0616 0.4433,0.1645 1.0657,0.2529 0.4104,-0.1691 1.1987,-0.2599 0.2345,-0.0784 0.4003,-0.2207 0.6449,-0.4273 0.7157,-0.6044 1.2678,-0.9208 2.0687,-1.4444 -0.0922,0.5511 -0.6581,0.9806 -0.6711,1.5367 0.1208,0.6755 -0.0405,0.1317 0.1839,0.7087 0.0083,0.0215 0.3658,-0.2081 -0.1494,0.5135l-0.8417 1.1642 1.5151 -0.1877c-0.1866,-0.3323 0.0656,-0.0467 -0.1227,-0.1495 -0.0194,-0.0191 -0.1454,0.2486 -0.0358,-0.2186 0.0514,-0.2192 0.0839,-0.1997 0.1942,-0.3864l1.2198 -2.1337c0.4613,-0.8906 0.8906,-2.9566 -0.8307,-2.6913 -1.167,0.1799 -3.7063,2.3491 -4.6983,3.2327 -0.4364,0.3886 -0.4239,0.172 -0.7767,0.4759z"/>
  <path class="fil2 str0" d="M134.534 95.1197c0.0905,0.2833 0.0974,0.1759 0.1249,0.5765l0.8658 -0.2469c-1.2785,0.996 -0.622,0.1905 -2.105,0.1244l-0.3716 0.5032c-0.2915,-0.5561 -0.0049,-0.5127 -0.3722,-0.3807l-0.0848 0.6564c0.0508,1.3231 3.648,-0.5184 4.4602,-0.6756 -0.1667,0.4255 -0.1736,0.3327 -0.5188,0.5822l0.2356 0.3417c0.2873,0.2783 0.6712,0.2396 1.1113,0.3577 1.6316,-0.8309 1.821,-1.7359 2.4529,-3.1182 -0.6897,-0.8856 -1.8464,-0.3121 -2.8932,0.0481l-2.1511 0.8263c-0.0701,0.0258 -0.2957,0.1046 -0.3594,0.1355 -0.3966,0.1926 -0.1679,0.0388 -0.3946,0.2694z"/>
  <path class="fil6 str1" d="M117.633 107.604c0.8517,0.2205 0.595,-0.1112 1.4176,0.2214 -0.1586,0.3451 -0.0272,0.233 -0.8279,0.533l0.7047 0.7047c-0.4271,0.2892 -0.063,-0.0053 -0.2471,0.3378l0.3264 0.0541c0.1019,-0.0854 0.0776,-0.075 0.2518,-0.1637 0.501,-0.2552 1.4247,-0.3395 3.0843,-1.2678 1.0649,-0.5956 2.0229,-1.1079 2.6553,-1.981 -0.7617,-0.1608 -0.4053,0.0618 -0.8397,0.2866 -0.021,0.0109 -0.0533,0.0309 -0.0744,0.0382l-0.2337 0.0054c-0.0534,-0.0103 -0.2377,-0.1138 -0.3393,-0.1568l0.3871 -0.8314 -0.4879 0.3802c-0.0303,0.0281 -0.1193,0.1051 -0.1532,0.1267 -0.0271,0.0173 -0.0554,0.0375 -0.0843,0.0512 -0.2574,0.1223 -0.5627,0.0728 -0.7765,-0.0974l1.0097 -0.9677c0.0113,-0.0139 0.0446,-0.0323 0.0526,-0.0725 0.0081,-0.0403 0.0353,-0.0485 0.0525,-0.073l0.4216 0.4448c0.1265,0.0599 0.0278,0.0385 0.3304,0.0322 0.1389,-0.0028 0.1148,-0.0112 0.2762,-0.0868l-0.3864 -0.4167c-0.9649,-0.7407 -0.2283,-0.4957 -0.3522,-1.3627 -0.0238,0.0256 -0.0493,0.0635 -0.0639,0.0832l-0.1212 0.1631c-0.6835,0.9629 -1.4472,1.6979 -2.4354,2.4007 -1.6694,1.1873 -2.1146,0.9905 -3.0941,1.3764 -0.0156,0.0061 -0.2615,0.1242 -0.2703,0.1287l-0.1827 0.1091z"/>
  <path class="fil8 str1" d="M63.673 70.2011c-0.2281,0.0862 -0.2371,0.1916 -0.4194,0.4465 -0.062,0.0867 -0.1453,0.195 -0.1968,0.2958 -0.1512,0.2962 -0.0729,0.0246 -0.0921,0.302l0.1894 0.3065 -0.3367 0.6301c0.0365,0.0241 0.0925,0.0087 0.1113,0.0699 0.0177,0.0575 0.1642,0.1255 0.1894,0.1546l0.5684 0.9901c0.0178,0.0259 0.0354,0.0591 0.0553,0.0839 0.2304,0.2875 0.2687,0.1996 1.0113,0.1872 0.0012,0.5158 -0.1706,0.454 0.1909,0.6837 0.1664,-0.0769 -0.0446,0.0858 0.2435,-0.178 0.0551,-0.0505 0.1692,-0.1742 0.2374,-0.2502 0.2109,-0.2358 0.2981,-0.3674 0.4668,-0.5883 -0.0314,-0.019 -0.087,-0.0746 -0.101,-0.0445l-0.2483 -0.119c0.1294,-0.9418 -0.008,-0.0283 0.1584,-0.5915 0.0921,-0.3118 0.0308,-0.187 0.0832,-0.4688 0.1111,-0.5978 0.1474,-0.1478 0.7481,-0.9186 -1.0125,0.0441 -1.1148,0.8603 -0.9434,-1.6806 1.0918,0 0.5464,0.0914 1.6872,-0.2498 0.3437,0.1904 0.6142,0.4874 0.6175,0.4893l0.3728 0.0785 -0.3123 -0.8658 0.6838 0.142c0.02,-0.5216 0.2104,-0.3661 0.5489,-1.0089 -0.0609,0.061 -0.0127,0.3129 -0.6715,0.0006l0.4245 -0.9249 -0.6722 -0.0646c-0.0912,0.2602 -0.0552,0.334 -0.1151,0.5734 -0.139,0.555 -0.0803,0.1697 -0.2664,0.5652 -0.2612,0.5549 0.0847,0.253 -0.5038,0.7413 -0.0908,-0.6209 0.0362,-0.4911 0.2326,-0.8393 0.4281,-0.7587 0.0124,-0.8186 -0.586,-1.1643 0.0122,0.7029 0.1916,1.1828 -0.2028,1.6613 -0.6543,0.396 -1.4391,-0.1963 -1.7279,0.7731 -0.2228,0.748 0.0662,0.4857 -0.4862,0.9767 -0.8644,0.7686 0.3014,0.0733 -1.1751,1.0431 0.1148,-0.5502 0.3821,-0.8661 0.6193,-1.3614 -0.0635,0.0149 -0.3557,0.1137 -0.383,0.1237z"/>
  <path class="fil4 str5" d="M83.8737 32.3488c1.1104,0.0526 3.0186,-1.2862 2.4583,-2.3453 -0.3723,-0.7036 -2.7565,-1.2552 -3.5588,-1.4866 -0.0165,0.5364 0.8017,3.491 1.1005,3.8319z"/>
  <path class="fil4 str6" d="M106.074 56.8796c-0.7453,0.3574 -0.858,1.0863 -0.764,1.9644 0.0715,0.6684 0.491,1.5892 1.2182,1.2533 1.1612,-0.5366 0.7282,-3.7847 -0.4542,-3.2177z"/>
  <path class="fil9 str1" d="M9.0002 63.3528c0.1882,0.9499 1.1796,3.3641 1.6753,3.9661l1.2837 -4.9136c-0.5501,0.2368 -0.3094,0.2407 -0.768,0.9454 -0.0133,0.0205 -0.0519,0.1044 -0.0618,0.0842 -0.0101,-0.0204 -0.0432,0.0558 -0.0649,0.0837 0.3367,1.2225 0.3659,1.1111 -0.2709,1.3608 -0.7108,-1.4641 0.1774,-2.2088 0,-2.6524 -0.2418,0.3394 -0.3439,0.5687 -0.6395,0.8611l-0.2269 0.1824 0.0717 0.3154c0.1574,0.417 0.2986,-0.2564 0.2986,1.4172 -0.8727,-0.7078 -0.57,-0.3956 -0.7359,-0.9241 -0.1316,-0.4192 -0.1566,-0.4508 -0.5614,-0.7262z"/>
  <path class="fil10 str1" d="M59.8025 39.0588c0.3916,-0.1969 0.2931,-0.1553 0.5997,-0.4823 0.2091,-0.2229 0.3075,-0.3384 0.529,-0.5869 0.3757,-0.4215 0.6851,-0.8252 1.1417,-1.0976l-0.4822 -0.2298 0.3282 -0.6189 -0.5885 -0.7431c-0.1831,0.0741 -0.0628,0.0101 -0.2045,0.1507l-0.291 0.3282c-0.5602,0.0037 -0.4561,-0.0676 -0.9653,0.0846 -0.5009,0.1497 -0.2498,0.1331 -1.0675,0.0565 -0.2212,0.2234 -0.2104,0.2252 -0.3213,0.4977 0.724,0.4526 -0.0709,-0.246 1.1148,0.1205 -0.1163,0.3856 0.2683,-0.2029 -0.2705,0.3069l-0.3475 0.3119 0.5407 0.3426c0.2917,0.1301 -0.157,0.1309 0.1903,0.0493 0.3006,-0.0706 0.1474,-0.4769 0.269,-0.8457 0.2054,-0.6233 0.9081,-0.7019 1.4358,-0.4125 -0.0863,0.7608 0.0393,0.288 -0.3527,0.6037 -0.8546,0.6882 -0.375,0.558 -0.8744,0.9943l-0.5907 0.3822c0.0124,0.3102 0.0842,0.4153 0.2069,0.7877z"/>
  <path class="fil0 str0" d="M132.591 96.3526l0.0848 -0.6564c0.3673,-0.132 0.0807,-0.1754 0.3722,0.3807l0.3716 -0.5032c1.483,0.0661 0.8265,0.8716 2.105,-0.1244l-0.8658 0.2469c-0.0275,-0.4006 -0.0344,-0.2932 -0.1249,-0.5765l-0.3706 -0.0082c0.1883,0.1028 -0.0639,-0.1828 0.1227,0.1495l-1.5151 0.1877 0.8417 -1.1642c0.5152,-0.7216 0.1577,-0.492 0.1494,-0.5135 -0.2244,-0.577 -0.0631,-0.0332 -0.1839,-0.7087 -0.0248,0.0231 -0.0597,0.0267 -0.0705,0.0731 -0.0107,0.0459 -0.0542,0.0562 -0.0686,0.0735 -0.4966,0.5973 -1.5781,2.4737 -0.848,3.1437z"/>
  <path class="fil0 str0" d="M137.879 96.9586c-0.4401,-0.1181 -0.824,-0.0794 -1.1113,-0.3577l-0.2356 -0.3417c-0.6799,0.5802 -1.796,1.3713 -1.5493,2.7151l3.2184 -0.3658c0.8583,-0.3271 2.288,-1.0916 3.0281,-1.1705 -1.7109,2.5931 -2.2568,3.7897 -4.3738,5.8982 -0.4379,0.4361 -1.3289,1.3969 -1.9444,1.4151 -2.3674,0.0697 -2.2358,1.5204 -4.6122,2.1861 -1.0643,0.2981 -1.9074,0.1082 -2.9082,-0.1324 -1.5413,-0.3703 -0.1945,-0.7566 -2.3929,-0.7624 -0.6324,0.8731 -1.5904,1.3854 -2.6553,1.981 -1.6596,0.9283 -2.5833,1.0126 -3.0843,1.2678 -0.1742,0.0887 -0.1499,0.0783 -0.2518,0.1637 1.0312,0.1865 0.2565,-0.1695 1.3139,0.3682 0.3108,0.158 0.4218,0.1569 0.7666,0.227l-0.0547 0.2196c0.1154,-0.1305 1.9084,-0.9009 2.3035,-1.1313l2.1594 -1.5689c1.1037,0.531 2.0874,0.9822 3.7128,0.9945 2.3271,0.0177 3.7219,-1.4452 4.8879,-2.176 0.6864,-0.4302 0.9447,0.3178 1.8392,-0.2579l2.4617 -2.2415c1.1988,-1.2399 3.0369,-3.4213 4.0551,-5.3561 0.6369,-1.2103 0.9208,-2.8243 -1.1082,-2.6272l-3.4652 1.2275c-0.0029,-0.0162 0.0019,-0.0163 0.0006,-0.1744z"/>
 </g>
</svg>
