<?xml version="1.0" encoding="UTF-8"?>
<!DOCTYPE svg PUBLIC "-//W3C//DTD SVG 1.1//EN" "http://www.w3.org/Graphics/SVG/1.1/DTD/svg11.dtd">
<!-- Creator: CorelDRAW -->
<svg xmlns="http://www.w3.org/2000/svg" xml:space="preserve" width="150mm" height="150mm" style="shape-rendering:geometricPrecision; text-rendering:geometricPrecision; image-rendering:optimizeQuality; fill-rule:evenodd; clip-rule:evenodd"
viewBox="0 0 150 150"
 xmlns:xlink="http://www.w3.org/1999/xlink">
 <defs>
  <style type="text/css">
   <![CDATA[
    .fil0 {fill:#0247D2}
    .fil2 {fill:#E31E25}
    .fil1 {fill:#FEFEFE}
    .fil3 {fill:#E31E25;fill-rule:nonzero}
   ]]>
  </style>
 </defs>
 <g id="Capa_x0020_1">
  <metadata id="CorelCorpID_0Corel-Layer"/>
  <path class="fil0" d="M5.4979 1.8773c-2.601,0.6214 -3.7622,2.4128 -3.754,5.4869 0.1135,42.6285 0.0008,85.3806 0.0008,128.027 0,1.9386 -0.2411,7.6759 0.1235,9.1877 0.3184,1.3199 1.0556,2.1632 1.8257,2.7449 1.0481,0.7917 2.0917,0.9289 3.6713,0.9251 42.6381,-0.101 85.3747,-0.0004 128.027,-0.0004 2.0326,0 7.5443,0.2504 9.1859,-0.1199 2.8023,-0.6322 3.6767,-2.8811 3.6748,-5.4978l0.0006 -128.027c0,-2.0161 0.2438,-7.6016 -0.1216,-9.1846 -0.6461,-2.7982 -2.887,-3.6767 -5.5001,-3.6751l-128.027 -0.0005c-1.9983,0 -7.5515,-0.238 -9.1069,0.1337z"/>
  <polygon class="fil1" points="6.5075,143.467 143.488,143.473 143.46,6.5055 6.5076,6.5328 "/>
  <path class="fil1" d="M60.6765 117.502l27.9404 0.1994 -0.1793 -20.1379c3.4693,-2.4095 4.0528,-2.5128 6.8344,-5.9756 3.1866,-3.967 5.267,-7.0676 7.7215,-11.5847 2.3068,-4.2454 4.7972,-7.4708 9.3721,-10.0576 1.5105,-0.854 2.692,-1.3174 4.3908,-1.9652 1.4069,-0.5365 2.731,-2.0695 2.1335,-4.0993 -0.2898,-0.9846 -2.3068,-2.7579 -3.1659,-3.3134 -3.5276,-2.2813 -9.3903,-1.1019 -11.7811,2.0968 -0.5094,0.6815 -0.7944,1.3413 -1.3304,1.9712 -0.9353,1.0993 -2.0804,2.1196 -4.0072,2.4627l-5.1266 -1.1638 -0.377 -0.5262 -0.9278 -2.2466 -0.3283 -8.0106c0.2007,-2.6332 0.3335,-5.2835 0.4441,-7.9003 0.2305,-5.4519 0.3818,-10.9005 0.4981,-16.3772 0.0583,-2.7419 0.3445,-5.1266 -0.9909,-7.2236 -1.0571,-1.66 -3.4911,-2.7124 -5.7352,-1.2188 -1.7192,1.1443 -1.8405,3.7214 -1.9811,6.4037l-1.3772 23.6201c-0.0564,1.0772 0.1363,2.7068 -1.2086,3.0226 -0.6557,0.1539 -1.0473,-0.2838 -1.2735,-0.6925 -0.3315,-0.599 -0.3316,-9.0883 -0.3517,-10.2066 -0.0454,-2.5337 -0.3132,-22.9821 -0.5828,-24.5408 -0.391,-2.26 -1.9953,-3.8447 -4.3651,-4.0957 -5.9206,0.3429 -4.9309,6.8661 -4.7819,12.2433 0.1524,5.4997 0.1056,11.0548 0.286,16.5758 0.1105,3.3816 0.2483,9.1179 0.2197,12.5288 -0.0095,1.1355 -1.2258,2.209 -2.0934,1.1666 -0.8411,-1.0104 -0.6701,-2.0519 -0.7356,-3.5929l-0.599 -11.9338c-0.135,-2.7392 -0.2954,-5.4059 -0.4081,-8.1335 -0.1188,-2.8762 0.1572,-8.8863 -2.6111,-10.0925 -1.0146,-0.4421 -2.578,-0.4769 -3.6843,-0.1325 -4.1101,1.2793 -2.8195,9.9751 -2.6261,13.7934 0.1409,2.7795 1.1058,23.4126 0.9046,24.3707l-2.1252 -0.6576c-0.149,-0.514 -1.5004,-12.8617 -1.6862,-14.434 -0.2305,-1.9505 -0.2212,-3.8788 -1.3794,-5.1022 -1.6104,-1.7011 -6.6187,-2.6488 -6.626,4.0688 -0.0074,6.7374 2.9436,28.2952 4.1531,34.4758 1.0957,5.5984 2.0232,9.9738 5.9049,13.5263 1.3986,1.2799 2.6218,2.0697 3.4925,2.8429l0.1503 20.0465z"/>
  <path class="fil0" d="M74.9217 15.942c2.3698,0.251 3.9741,1.8357 4.3651,4.0957 0.2696,1.5587 0.5374,22.0071 0.5828,24.5408 0.0201,1.1183 0.0202,9.6076 0.3517,10.2066 0.2262,0.4087 0.6178,0.8464 1.2735,0.6925 1.3449,-0.3158 1.1522,-1.9454 1.2086,-3.0226l1.3772 -23.6201c0.1406,-2.6823 0.2619,-5.2594 1.9811,-6.4037 2.2441,-1.4936 4.6781,-0.4412 5.7352,1.2188 1.3354,2.097 1.0492,4.4817 0.9909,7.2236 -0.1163,5.4767 -0.2676,10.9253 -0.4981,16.3772 -0.1106,2.6168 -0.2434,5.2671 -0.4441,7.9003 -0.3647,4.787 0.2395,5.5327 0.1997,7.669l0.1286 0.3416 0.9278 2.2466 0.377 0.5262 5.1266 1.1638c1.9268,-0.3431 3.0719,-1.3634 4.0072,-2.4627 0.536,-0.6299 0.821,-1.2897 1.3304,-1.9712 2.3908,-3.1987 8.2535,-4.3781 11.7811,-2.0968 0.8591,0.5555 2.8761,2.3288 3.1659,3.3134 0.5975,2.0298 -0.7266,3.5628 -2.1335,4.0993 -1.6988,0.6478 -2.8803,1.1112 -4.3908,1.9652 -4.5749,2.5868 -7.0653,5.8122 -9.3721,10.0576 -2.4545,4.5171 -4.5349,7.6177 -7.7215,11.5847 -2.7816,3.4628 -3.3651,3.5661 -6.8344,5.9756l-0.0043 11.9092 0.1836 8.2287c6.2821,-1.2708 14.9824,-5.803 19.8717,-9.5936 11.6185,-9.0075 19.712,-21.9388 21.5373,-37.535 1.4822,-12.6653 -1.3758,-25.2938 -7.7738,-35.5858 -5.5578,-8.9404 -13.628,-16.4788 -23.2171,-20.99 -6.891,-3.2419 -15.233,-5.6427 -24.1222,-5.4585l0.0089 7.4036z"/>
  <path class="fil2" d="M60.6765 117.502l0 -8.0252 -0.1503 -12.0213c-0.8707,-0.7732 -2.0939,-1.563 -3.4925,-2.8429 -3.8817,-3.5525 -4.8092,-7.9279 -5.9049,-13.5263 -1.2095,-6.1806 -4.1605,-27.7384 -4.1531,-34.4758 0.0073,-6.7176 5.0156,-5.7699 6.626,-4.0688 1.1582,1.2234 1.1489,3.1517 1.3794,5.1022 0.1858,1.5723 1.5372,13.92 1.6862,14.434l2.1252 0.6576c0.2012,-0.9581 -0.7637,-21.5912 -0.9046,-24.3707 -0.1934,-3.8183 -1.484,-12.5141 2.6261,-13.7934 1.1063,-0.3444 2.6697,-0.3096 3.6843,0.1325 2.7683,1.2062 2.4923,7.2163 2.6111,10.0925 0.1127,2.7276 0.2731,5.3943 0.4081,8.1335l0.599 11.9338c0.0655,1.541 -0.1055,2.5825 0.7356,3.5929 0.8676,1.0424 2.0839,-0.0311 2.0934,-1.1666 0.0286,-3.4109 -0.1092,-9.1472 -0.2197,-12.5288 -0.1804,-5.521 -0.1336,-11.0761 -0.286,-16.5758 -0.149,-5.3772 -1.1387,-11.9004 4.7819,-12.2433l-0.0089 -7.4036c-6.8797,-0.3475 -15.723,1.9461 -21.2356,4.2376 -3.0415,1.2644 -5.7754,2.7666 -8.3487,4.354 -3.1517,1.9444 -8.102,5.9284 -10.5303,8.6493 -0.9938,1.1135 -1.9602,2.1571 -2.9535,3.3948 -6.0756,7.5701 -10.0954,16.3492 -11.676,26.6703 -2.4008,15.6766 2.5207,30.2615 9.6487,40.2014 3.7198,5.1871 7.5716,9.0036 12.7017,12.8279 4.1016,3.0577 12.1789,7.1228 18.1574,8.6282z"/>
  <path class="fil3" d="M31.8574 136.754l-6.6512 0 -0.915 3.1715 -5.965 0 7.0999 -19.2125 6.3653 0 7.1044 19.2125 -6.1101 0 -0.9283 -3.1715zm-1.2229 -4.1557l-2.0895 -6.9066 -2.0763 6.9066 4.1658 0zm22.2325 -0.5233l5.116 1.5746c-0.3431,1.4582 -0.8843,2.6749 -1.6233,3.6546 -0.739,0.9796 -1.6584,1.7177 -2.7537,2.2142 -1.0953,0.501 -2.4899,0.7471 -4.1791,0.7471 -2.0543,0 -3.7346,-0.3042 -5.0324,-0.9081 -1.302,-0.6084 -2.4282,-1.6775 -3.374,-3.2073 -0.9414,-1.5299 -1.4164,-3.4847 -1.4164,-5.8689 0,-3.1805 0.8313,-5.6273 2.4941,-7.3316 1.6629,-1.7088 4.0163,-2.5632 7.056,-2.5632 2.3799,0 4.2494,0.4876 5.6131,1.4672 1.3637,0.9797 2.3755,2.4827 3.0353,4.5091l-5.1556 1.1675c-0.1804,-0.586 -0.3695,-1.0155 -0.5675,-1.2883 -0.3255,-0.4518 -0.7258,-0.8007 -1.1965,-1.0468 -0.475,-0.246 -1.0029,-0.3668 -1.588,-0.3668 -1.3197,0 -2.3359,0.5413 -3.0397,1.6238 -0.5322,0.8052 -0.8006,2.0667 -0.8006,3.7889 0,2.1337 0.3211,3.592 0.9546,4.3837 0.6378,0.7918 1.5308,1.1854 2.6789,1.1854 1.1174,0 1.962,-0.3176 2.5339,-0.9572 0.5718,-0.6352 0.9853,-1.5612 1.2449,-2.7779zm20.53 0l5.116 1.5746c-0.3431,1.4582 -0.8843,2.6749 -1.6233,3.6546 -0.739,0.9796 -1.6584,1.7177 -2.7537,2.2142 -1.0953,0.501 -2.4899,0.7471 -4.179,0.7471 -2.0544,0 -3.7347,-0.3042 -5.0325,-0.9081 -1.302,-0.6084 -2.4282,-1.6775 -3.3739,-3.2073 -0.9414,-1.5299 -1.4165,-3.4847 -1.4165,-5.8689 0,-3.1805 0.8313,-5.6273 2.4942,-7.3316 1.6628,-1.7088 4.0163,-2.5632 7.056,-2.5632 2.3798,0 4.2493,0.4876 5.613,1.4672 1.3637,0.9797 2.3755,2.4827 3.0354,4.5091l-5.1557 1.1675c-0.1804,-0.586 -0.3695,-1.0155 -0.5674,-1.2883 -0.3255,-0.4518 -0.7259,-0.8007 -1.1965,-1.0468 -0.4751,-0.246 -1.003,-0.3668 -1.5881,-0.3668 -1.3196,0 -2.3359,0.5413 -3.0397,1.6238 -0.5322,0.8052 -0.8006,2.0667 -0.8006,3.7889 0,2.1337 0.3211,3.592 0.9546,4.3837 0.6378,0.7918 1.5309,1.1854 2.679,1.1854 1.1173,0 1.9619,-0.3176 2.5338,-0.9572 0.5718,-0.6352 0.9854,-1.5612 1.2449,-2.7779zm8.1821 -11.362l5.8506 0 0 19.2125 -5.8506 0 0 -19.2125zm9.3038 9.6174c0,-3.1357 0.8622,-5.5781 2.5778,-7.3227 1.72,-1.749 4.113,-2.6213 7.1792,-2.6213 3.1452,0 5.5691,0.8589 7.2714,2.5766 1.6981,1.7132 2.5515,4.1198 2.5515,7.2109 0,2.2455 -0.3739,4.0885 -1.1174,5.5244 -0.7434,1.4359 -1.8168,2.5542 -3.22,3.3549 -1.4078,0.8007 -3.1541,1.1988 -5.2525,1.1988 -2.129,0 -3.893,-0.3444 -5.2919,-1.0333 -1.3945,-0.6933 -2.525,-1.7848 -3.396,-3.2789 -0.8666,-1.494 -1.3021,-3.3638 -1.3021,-5.6094zm5.8419 0.0269c0,1.9413 0.3518,3.3325 1.0601,4.1824 0.7082,0.8455 1.676,1.2704 2.8945,1.2704 1.2537,0 2.2259,-0.416 2.9122,-1.2435 0.6862,-0.8321 1.0337,-2.3216 1.0337,-4.4688 0,-1.8117 -0.3607,-3.1313 -1.0777,-3.9678 -0.7171,-0.832 -1.6893,-1.248 -2.921,-1.248 -1.1745,0 -2.1203,0.4205 -2.8329,1.2704 -0.7126,0.8455 -1.0689,2.2501 -1.0689,4.2049zm3.8271 -14.7259l4.5088 0 -4.1613 3.9185 -2.5118 0 2.1643 -3.9185zm13.0913 5.0816l5.4547 0 7.1131 10.6284 0 -10.6284 5.5032 0 0 19.2125 -5.5032 0 -7.0779 -10.5479 0 10.5479 -5.4899 0 0 -19.2125z"/>
 </g>
</svg>
